<?xml version="1.0" encoding="utf-8"?>
<!-- Generator: Adobe Illustrator 25.2.0, SVG Export Plug-In . SVG Version: 6.00 Build 0)  -->
<svg version="1.1" id="레이어_1" xmlns="http://www.w3.org/2000/svg" xmlns:xlink="http://www.w3.org/1999/xlink" x="0px"
	 y="0px" viewBox="0 0 841.9 595.3" style="enable-background:new 0 0 841.9 595.3;" xml:space="preserve">
<style type="text/css">
	.st0{fill:url(#SVGID_1_);}
	.st1{fill:url(#SVGID_2_);}
	.st2{opacity:0.8;}
	.st3{fill:#FFFFFF;fill-opacity:0;}
	.st4{opacity:1.234568e-02;fill:#FFFFFF;enable-background:new    ;}
	.st5{opacity:2.469136e-02;fill:#FFFFFF;enable-background:new    ;}
	.st6{opacity:3.703704e-02;fill:#FFFFFF;enable-background:new    ;}
	.st7{opacity:4.938272e-02;fill:#FFFFFF;enable-background:new    ;}
	.st8{opacity:6.172840e-02;fill:#FFFFFF;enable-background:new    ;}
	.st9{opacity:7.407407e-02;fill:#FFFFFF;enable-background:new    ;}
	.st10{opacity:8.641975e-02;fill:#FFFFFF;enable-background:new    ;}
	.st11{opacity:9.876543e-02;fill:#FFFFFF;enable-background:new    ;}
	.st12{opacity:0.1111;fill:#FFFFFF;enable-background:new    ;}
	.st13{opacity:0.1235;fill:#FFFFFF;enable-background:new    ;}
	.st14{opacity:0.1358;fill:#FFFFFF;enable-background:new    ;}
	.st15{opacity:0.1481;fill:#FFFFFF;enable-background:new    ;}
	.st16{opacity:0.1605;fill:#FFFFFF;enable-background:new    ;}
	.st17{opacity:0.1728;fill:#FFFFFF;enable-background:new    ;}
	.st18{opacity:0.1852;fill:#FFFFFF;enable-background:new    ;}
	.st19{opacity:0.1975;fill:#FFFFFF;enable-background:new    ;}
	.st20{opacity:0.2099;fill:#FFFFFF;enable-background:new    ;}
	.st21{opacity:0.2222;fill:#FFFFFF;enable-background:new    ;}
	.st22{opacity:0.2346;fill:#FFFFFF;enable-background:new    ;}
	.st23{opacity:0.2469;fill:#FFFFFF;enable-background:new    ;}
	.st24{opacity:0.2593;fill:#FFFFFF;enable-background:new    ;}
	.st25{opacity:0.2716;fill:#FFFFFF;enable-background:new    ;}
	.st26{opacity:0.284;fill:#FFFFFF;enable-background:new    ;}
	.st27{opacity:0.2963;fill:#FFFFFF;enable-background:new    ;}
	.st28{opacity:0.3086;fill:#FFFFFF;enable-background:new    ;}
	.st29{opacity:0.321;fill:#FFFFFF;enable-background:new    ;}
	.st30{opacity:0.3333;fill:#FFFFFF;enable-background:new    ;}
	.st31{opacity:0.3457;fill:#FFFFFF;enable-background:new    ;}
	.st32{opacity:0.358;fill:#FFFFFF;enable-background:new    ;}
	.st33{opacity:0.3704;fill:#FFFFFF;enable-background:new    ;}
	.st34{opacity:0.3827;fill:#FFFFFF;enable-background:new    ;}
	.st35{opacity:0.3951;fill:#FFFFFF;enable-background:new    ;}
	.st36{opacity:0.4074;fill:#FFFFFF;enable-background:new    ;}
	.st37{opacity:0.4198;fill:#FFFFFF;enable-background:new    ;}
	.st38{opacity:0.4321;fill:#FFFFFF;enable-background:new    ;}
	.st39{opacity:0.4444;fill:#FFFFFF;enable-background:new    ;}
	.st40{opacity:0.4568;fill:#FFFFFF;enable-background:new    ;}
	.st41{opacity:0.4691;fill:#FFFFFF;enable-background:new    ;}
	.st42{opacity:0.4815;fill:#FFFFFF;enable-background:new    ;}
	.st43{opacity:0.4938;fill:#FFFFFF;enable-background:new    ;}
	.st44{opacity:0.5062;fill:#FFFFFF;enable-background:new    ;}
	.st45{opacity:0.5185;fill:#FFFFFF;enable-background:new    ;}
	.st46{opacity:0.5309;fill:#FFFFFF;enable-background:new    ;}
	.st47{opacity:0.5432;fill:#FFFFFF;enable-background:new    ;}
	.st48{opacity:0.5556;fill:#FFFFFF;enable-background:new    ;}
	.st49{opacity:0.5679;fill:#FFFFFF;enable-background:new    ;}
	.st50{opacity:0.5802;fill:#FFFFFF;enable-background:new    ;}
	.st51{opacity:0.5926;fill:#FFFFFF;enable-background:new    ;}
	.st52{opacity:0.6049;fill:#FFFFFF;enable-background:new    ;}
	.st53{opacity:0.6173;fill:#FFFFFF;enable-background:new    ;}
	.st54{opacity:0.6296;fill:#FFFFFF;enable-background:new    ;}
	.st55{opacity:0.642;fill:#FFFFFF;enable-background:new    ;}
	.st56{opacity:0.6543;fill:#FFFFFF;enable-background:new    ;}
	.st57{opacity:0.6667;fill:#FFFFFF;enable-background:new    ;}
	.st58{opacity:0.679;fill:#FFFFFF;enable-background:new    ;}
	.st59{opacity:0.6914;fill:#FFFFFF;enable-background:new    ;}
	.st60{opacity:0.7037;fill:#FFFFFF;enable-background:new    ;}
	.st61{opacity:0.716;fill:#FFFFFF;enable-background:new    ;}
	.st62{opacity:0.7284;fill:#FFFFFF;enable-background:new    ;}
	.st63{opacity:0.7407;fill:#FFFFFF;enable-background:new    ;}
	.st64{opacity:0.7531;fill:#FFFFFF;enable-background:new    ;}
	.st65{opacity:0.7654;fill:#FFFFFF;enable-background:new    ;}
	.st66{opacity:0.7778;fill:#FFFFFF;enable-background:new    ;}
	.st67{opacity:0.7901;fill:#FFFFFF;enable-background:new    ;}
	.st68{opacity:0.8025;fill:#FFFFFF;enable-background:new    ;}
	.st69{opacity:0.8148;fill:#FFFFFF;enable-background:new    ;}
	.st70{opacity:0.8272;fill:#FFFFFF;enable-background:new    ;}
	.st71{opacity:0.8395;fill:#FFFFFF;enable-background:new    ;}
	.st72{opacity:0.8519;fill:#FFFFFF;enable-background:new    ;}
	.st73{opacity:0.8642;fill:#FFFFFF;enable-background:new    ;}
	.st74{opacity:0.8765;fill:#FFFFFF;enable-background:new    ;}
	.st75{opacity:0.8889;fill:#FFFFFF;enable-background:new    ;}
	.st76{opacity:0.9012;fill:#FFFFFF;enable-background:new    ;}
	.st77{opacity:0.9136;fill:#FFFFFF;enable-background:new    ;}
	.st78{opacity:0.9259;fill:#FFFFFF;enable-background:new    ;}
	.st79{opacity:0.9383;fill:#FFFFFF;enable-background:new    ;}
	.st80{opacity:0.9506;fill:#FFFFFF;enable-background:new    ;}
	.st81{opacity:0.963;fill:#FFFFFF;enable-background:new    ;}
	.st82{opacity:0.9753;fill:#FFFFFF;enable-background:new    ;}
	.st83{opacity:0.9877;fill:#FFFFFF;enable-background:new    ;}
	.st84{fill:#FFFFFF;}
	.st85{opacity:0.3;fill:url(#SVGID_3_);enable-background:new    ;}
	.st86{fill:url(#SVGID_4_);}
	.st87{fill:url(#SVGID_5_);}
	.st88{opacity:0.3;fill:url(#SVGID_6_);enable-background:new    ;}
	.st89{fill:url(#SVGID_7_);}
	.st90{fill:url(#SVGID_8_);}
	.st91{opacity:0.3;fill:url(#SVGID_9_);enable-background:new    ;}
	.st92{fill:url(#SVGID_10_);}
	.st93{fill:url(#SVGID_11_);}
	.st94{opacity:0.3;fill:url(#SVGID_12_);enable-background:new    ;}
	.st95{fill:url(#SVGID_13_);}
	.st96{fill:url(#SVGID_14_);}
	.st97{opacity:0.3;fill:url(#SVGID_15_);enable-background:new    ;}
	.st98{fill:url(#SVGID_16_);}
	.st99{fill:url(#SVGID_17_);}
	.st100{opacity:0.6;fill:url(#SVGID_18_);enable-background:new    ;}
</style>
<g>
	<g>
		
			<linearGradient id="SVGID_1_" gradientUnits="userSpaceOnUse" x1="889.1465" y1="369.573" x2="656.9222" y2="321.7207" gradientTransform="matrix(0.9561 -0.2929 -0.2929 -0.9561 109.6037 697.8348)">
			<stop  offset="0" style="stop-color:#6D6CB0"/>
			<stop  offset="0.5146" style="stop-color:#7091CA"/>
			<stop  offset="0.999" style="stop-color:#70C4BF"/>
			<stop  offset="0.9999" style="stop-color:#70C4BF"/>
			<stop  offset="1" style="stop-color:#70C4BF"/>
		</linearGradient>
		<path class="st0" d="M824,113.1c10.5,5,16.8,16.7,14.1,26.2l-58,204c-2.7,9.5-13.4,13.2-23.9,8.2l-225-106.3
			c-10.5-5-16.8-16.7-14.1-26.2l58-204c2.7-9.5,13.4-13.2,23.9-8.2L824,113.1z"/>
	</g>
	
		<linearGradient id="SVGID_2_" gradientUnits="userSpaceOnUse" x1="889.3833" y1="368.4239" x2="657.159" y2="320.5717" gradientTransform="matrix(0.9561 -0.2929 -0.2929 -0.9561 109.6037 697.8348)">
		<stop  offset="0" style="stop-color:#243457"/>
		<stop  offset="0.5385" style="stop-color:#495A80"/>
		<stop  offset="0.6777" style="stop-color:#45567B"/>
		<stop  offset="0.8325" style="stop-color:#39496E"/>
		<stop  offset="0.9943" style="stop-color:#253558"/>
		<stop  offset="1" style="stop-color:#243457"/>
	</linearGradient>
	<path class="st1" d="M756.2,351.5L756.2,351.5l-225-106.3c-10.5-5-16.8-16.7-14.1-26.2l58-204c0.7-2.4,1.8-4.4,3.4-6l-4,4.2
		c-1.5,1.6-2.7,3.6-3.4,6l-58,204c-2.7,9.5,3.6,21.2,14.1,26.2l225,106.3l3.7-3.8l-3.7,3.8c7.9,3.7,15.9,2.6,20.5-2.3l4-4.2
		C772.1,354.1,764.1,355.2,756.2,351.5z"/>
	<g class="st2">
		<g>
			<g>
				<g>
					<path class="st3" d="M683.9,317.4c14.6,6.8,29.2,13.7,43.7,20.6l21.9,10.3l5.5,2.6c1.8,0.9,3.7,1.7,5.6,2.2
						c3.9,1,8.1,0.9,11.8-0.8c-3.7,1.7-7.9,1.8-11.8,0.8c-2-0.5-3.8-1.3-5.6-2.2l-5.5-2.6L727.6,338
						C713.1,331.1,698.5,324.2,683.9,317.4z"/>
					<path class="st4" d="M684.2,317.5c14.5,6.8,29,13.6,43.4,20.4l21.7,10.3l5.4,2.6c1.8,0.9,3.6,1.7,5.6,2.2c3.8,1,8.1,1,11.8-0.6
						c-3.7,1.6-7.9,1.6-11.8,0.6c-1.9-0.5-3.8-1.3-5.6-2.2l-5.4-2.6L727.6,338C713.2,331.1,698.7,324.3,684.2,317.5z"/>
					<path class="st5" d="M684.5,317.7l43.1,20.3l21.5,10.2l5.4,2.5c0.9,0.4,1.8,0.9,2.7,1.2c0.9,0.4,1.9,0.7,2.8,1
						c3.8,1.1,8,1.1,11.7-0.4c-3.7,1.5-7.9,1.5-11.7,0.4c-1-0.3-1.9-0.6-2.8-1c-0.9-0.4-1.8-0.8-2.7-1.2l-5.4-2.5L727.6,338
						L684.5,317.7z"/>
					<path class="st6" d="M684.8,317.8l42.8,20.1L749,348l5.3,2.5c1.8,0.8,3.6,1.7,5.5,2.2c3.8,1.1,7.9,1.2,11.6-0.2
						c-3.7,1.4-7.9,1.3-11.6,0.2c-1.9-0.5-3.7-1.4-5.5-2.2L749,348l-21.4-10L684.8,317.8z"/>
					<path class="st7" d="M685.1,318l42.5,20l21.2,10l5.3,2.5c1.8,0.8,3.5,1.7,5.4,2.3c3.7,1.1,7.8,1.3,11.5,0
						c-3.7,1.3-7.8,1.1-11.5,0c-1.9-0.5-3.6-1.4-5.4-2.3l-5.3-2.5l-21.2-10L685.1,318z"/>
					<path class="st8" d="M685.5,318.1l42.2,19.8l21.1,10l5.3,2.5c1.8,0.8,3.5,1.7,5.4,2.3c3.7,1.2,7.8,1.4,11.5,0.2
						c-3.7,1.2-7.8,1-11.5-0.2c-1.9-0.6-3.6-1.5-5.4-2.3l-5.3-2.5l-21.1-10L685.5,318.1z"/>
					<path class="st9" d="M685.8,318.3l41.9,19.7l20.9,9.9l5.2,2.5c1.7,0.8,3.5,1.7,5.3,2.3c3.7,1.2,7.7,1.5,11.4,0.4
						c-3.7,1.1-7.7,0.8-11.4-0.4c-1.8-0.6-3.6-1.5-5.3-2.3l-5.2-2.5l-20.9-9.9L685.8,318.3z"/>
					<path class="st10" d="M686.1,318.4l41.6,19.6l20.8,9.8l5.2,2.5c1.7,0.8,3.4,1.7,5.3,2.3c3.6,1.2,7.6,1.6,11.3,0.5
						c-3.7,1-7.7,0.7-11.3-0.5c-1.8-0.6-3.5-1.5-5.3-2.3l-5.2-2.5l-20.8-9.8L686.1,318.4z"/>
					<path class="st11" d="M686.4,318.6l41.2,19.4l20.6,9.7l5.2,2.4c1.7,0.8,3.4,1.7,5.2,2.3c3.6,1.3,7.5,1.6,11.2,0.7
						c-3.7,0.9-7.6,0.5-11.2-0.7c-1.8-0.6-3.5-1.5-5.2-2.3l-5.2-2.4l-20.6-9.7L686.4,318.6z"/>
					<path class="st12" d="M686.7,318.7l40.9,19.3l20.5,9.7l5.1,2.4c1.7,0.8,3.4,1.7,5.2,2.3c3.5,1.3,7.4,1.7,11.1,0.9
						c-3.7,0.9-7.6,0.4-11.1-0.9c-1.8-0.7-3.4-1.5-5.2-2.3l-5.1-2.4l-20.5-9.7L686.7,318.7z"/>
					<path class="st13" d="M687,318.9l40.6,19.1l20.3,9.6l5.1,2.4c1.7,0.8,3.4,1.6,5.1,2.3c3.5,1.3,7.4,1.8,11,1
						c-3.7,0.8-7.5,0.3-11-1c-1.7-0.7-3.4-1.5-5.1-2.3l-5.1-2.4l-20.3-9.6L687,318.9z"/>
					<path class="st14" d="M687.3,319l40.3,19l20.1,9.5l5,2.4c1.7,0.8,3.3,1.6,5.1,2.3c3.4,1.4,7.3,1.9,10.9,1.2
						c-3.7,0.7-7.5,0.1-10.9-1.2c-1.7-0.7-3.4-1.5-5.1-2.3l-5-2.4l-20.1-9.5L687.3,319z"/>
					<path class="st15" d="M687.6,319.2l40,18.8l20,9.4c3.3,1.6,6.6,3.2,10,4.7c3.4,1.4,7.2,2,10.8,1.4c-3.6,0.6-7.4,0-10.8-1.4
						c-3.4-1.5-6.7-3.1-10-4.7l-20-9.4L687.6,319.2z"/>
					<path class="st16" d="M688,319.3l39.7,18.7l19.8,9.4c3.3,1.5,6.6,3.2,9.9,4.7c3.4,1.4,7.1,2,10.7,1.5
						c-3.6,0.5-7.4-0.1-10.7-1.5c-3.3-1.5-6.6-3.1-9.9-4.7l-19.8-9.4L688,319.3z"/>
					<path class="st17" d="M688.3,319.4l39.4,18.5l19.7,9.3c3.3,1.5,6.5,3.1,9.8,4.6c3.3,1.4,7,2.1,10.6,1.7
						c-3.6,0.4-7.3-0.2-10.6-1.7s-6.6-3.1-9.8-4.6l-19.7-9.3L688.3,319.4z"/>
					<path class="st18" d="M688.6,319.6l39.1,18.4l19.5,9.2l9.8,4.6c3.3,1.4,6.9,2.2,10.5,1.8c-3.6,0.4-7.2-0.3-10.5-1.8l-9.8-4.6
						l-19.5-9.2L688.6,319.6z"/>
					<path class="st19" d="M688.9,319.7l38.8,18.2l19.4,9.1l9.7,4.6c3.2,1.5,6.8,2.2,10.4,1.9c-3.6,0.3-7.2-0.5-10.4-1.9l-9.7-4.6
						l-19.4-9.1L688.9,319.7z"/>
					<path class="st20" d="M689.2,319.9l38.4,18.1l19.2,9.1l9.6,4.5c3.2,1.5,6.8,2.3,10.3,2.1c-3.5,0.2-7.1-0.6-10.3-2.1l-9.6-4.5
						l-19.2-9.1L689.2,319.9z"/>
					<path class="st21" d="M689.5,320l38.1,17.9l19.1,9l9.5,4.5c3.2,1.5,6.7,2.4,10.2,2.2c-3.5,0.2-7-0.7-10.2-2.2l-9.5-4.5l-19.1-9
						L689.5,320z"/>
					<path class="st22" d="M689.8,320.2l37.8,17.8l18.9,8.9l9.4,4.5c3.1,1.5,6.6,2.4,10.1,2.3c-3.5,0.1-7-0.8-10.1-2.3l-9.4-4.5
						l-18.9-8.9L689.8,320.2z"/>
					<path class="st23" d="M690.1,320.3l37.5,17.7l18.7,8.9l9.4,4.4c3.1,1.5,6.5,2.5,10,2.4c-3.5,0-6.9-0.9-10-2.4l-9.4-4.4
						l-18.7-8.8L690.1,320.3z"/>
					<path class="st24" d="M690.5,320.5l37.2,17.5l18.6,8.8l9.3,4.4c3.1,1.5,6.4,2.5,9.9,2.5c-3.4,0-6.8-1-9.9-2.5l-9.3-4.4
						l-18.6-8.8L690.5,320.5z"/>
					<path class="st25" d="M690.8,320.6l36.9,17.4l18.4,8.7l9.2,4.4c3,1.5,6.3,2.6,9.8,2.6c-3.4-0.1-6.7-1.1-9.8-2.6l-9.2-4.4
						l-18.4-8.7L690.8,320.6z"/>
					<path class="st26" d="M691.1,320.8l36.6,17.2l18.3,8.6l9.1,4.3c3,1.5,6.3,2.6,9.6,2.7c-3.4-0.2-6.7-1.2-9.6-2.7l-9.1-4.3
						l-18.3-8.6L691.1,320.8z"/>
					<path class="st27" d="M691.4,320.9l36.3,17.1l18.1,8.6l9.1,4.3c1.5,0.7,3,1.4,4.6,1.9s3.2,0.8,4.9,0.9
						c-1.7-0.1-3.3-0.4-4.9-0.9c-1.6-0.5-3.1-1.2-4.6-1.9l-9.1-4.3l-18.1-8.6L691.4,320.9z"/>
					<path class="st28" d="M691.7,321.1l35.9,16.9l18,8.5l9,4.2c1.5,0.7,3,1.4,4.6,1.9s3.2,0.9,4.9,1c-1.7-0.1-3.3-0.5-4.9-1
						c-1.6-0.5-3.1-1.2-4.6-1.9l-9-4.2l-18-8.5L691.7,321.1z"/>
					<path class="st29" d="M692,321.2l35.6,16.8l17.8,8.4l8.9,4.2c1.5,0.7,3,1.4,4.5,1.9c1.6,0.5,3.2,0.9,4.8,1.1
						c-1.6-0.2-3.2-0.5-4.8-1.1c-1.6-0.5-3-1.3-4.5-1.9l-8.9-4.2l-17.8-8.4L692,321.2z"/>
					<path class="st30" d="M692.3,321.3l35.3,16.6l17.6,8.3l8.8,4.2c1.5,0.7,2.9,1.4,4.5,2c1.5,0.5,3.1,0.9,4.7,1.1
						c-1.6-0.2-3.2-0.6-4.7-1.1s-3-1.3-4.5-2l-8.8-4.2l-17.6-8.3L692.3,321.3z"/>
					<path class="st31" d="M692.6,321.5l35,16.5l17.5,8.3l8.7,4.1c1.5,0.7,2.9,1.4,4.4,2s3.1,1,4.7,1.2c-1.6-0.2-3.2-0.6-4.7-1.2
						c-1.5-0.5-3-1.3-4.4-2l-8.7-4.1l-17.5-8.3L692.6,321.5z"/>
					<path class="st32" d="M692.9,321.6l34.7,16.3l17.3,8.2l8.7,4.1c1.4,0.7,2.9,1.4,4.4,2s3,1,4.6,1.2c-1.6-0.2-3.1-0.7-4.6-1.2
						c-1.5-0.6-2.9-1.3-4.4-2l-8.7-4.1l-17.3-8.2L692.9,321.6z"/>
					<path class="st33" d="M693.3,321.8l34.4,16.2l17.2,8.1l8.6,4.1c1.4,0.7,2.8,1.4,4.3,2s3,1,4.6,1.3c-1.6-0.3-3.1-0.7-4.6-1.3
						c-1.5-0.6-2.9-1.3-4.3-2l-8.6-4.1l-17.2-8.1L693.3,321.8z"/>
					<path class="st34" d="M693.6,321.9l34.1,16l17,8l8.5,4c1.4,0.7,2.8,1.4,4.3,2s3,1,4.5,1.3c-1.5-0.3-3.1-0.7-4.5-1.3
						c-1.4-0.6-2.8-1.3-4.3-2l-8.5-4l-17-8L693.6,321.9z"/>
					<path class="st35" d="M693.9,322.1l33.8,15.9l16.9,8l8.4,4c1.4,0.7,2.8,1.4,4.2,2s2.9,1.1,4.4,1.4c-1.5-0.3-3-0.8-4.4-1.4
						s-2.8-1.3-4.2-2l-8.4-4l-16.9-8L693.9,322.1z"/>
					<path class="st36" d="M694.2,322.2l33.4,15.8l16.7,7.9l8.4,3.9c1.4,0.7,2.8,1.3,4.2,2c1.4,0.6,2.9,1.1,4.4,1.4
						c-1.5-0.3-3-0.8-4.4-1.4s-2.8-1.3-4.2-2l-8.4-3.9l-16.7-7.9L694.2,322.2z"/>
					<path class="st37" d="M694.5,322.4l33.1,15.6l16.6,7.8l8.3,3.9c2.8,1.3,5.5,2.8,8.5,3.4c-3-0.7-5.7-2.2-8.5-3.4l-8.3-3.9
						l-16.6-7.8L694.5,322.4z"/>
					<path class="st38" d="M694.8,322.5l32.8,15.5l16.4,7.7l8.2,3.9c2.7,1.2,5.4,2.8,8.4,3.5c-3-0.7-5.6-2.2-8.4-3.5l-8.2-3.9
						l-16.4-7.7L694.8,322.5z"/>
					<path class="st39" d="M695.1,322.7l32.5,15.3l16.2,7.7l8.1,3.8c2.7,1.2,5.4,2.7,8.3,3.5c-2.9-0.7-5.5-2.2-8.3-3.5l-8.1-3.8
						l-16.2-7.7L695.1,322.7z"/>
					<path class="st40" d="M695.4,322.8l32.2,15.2l16.1,7.6l8,3.8c2.7,1.2,5.3,2.7,8.2,3.5c-2.9-0.8-5.5-2.3-8.2-3.5l-8-3.8
						l-16.1-7.6L695.4,322.8z"/>
					<path class="st41" d="M695.8,323l31.9,15l15.9,7.5l8,3.8l4,1.9c1.3,0.6,2.7,1.2,4.1,1.6c-1.4-0.4-2.8-1-4.1-1.6l-4-1.9l-8-3.8
						l-15.9-7.5L695.8,323z"/>
					<path class="st42" d="M696.1,323.1l31.6,14.9l15.8,7.5l7.9,3.7l3.9,1.9c1.3,0.6,2.6,1.2,4,1.7c-1.4-0.4-2.7-1-4-1.7l-3.9-1.9
						l-7.9-3.7l-15.8-7.5L696.1,323.1z"/>
					<path class="st43" d="M696.4,323.2l31.3,14.7l15.6,7.4l7.8,3.7l3.9,1.8c1.3,0.6,2.6,1.2,4,1.7c-1.4-0.4-2.7-1.1-4-1.7l-3.9-1.8
						l-7.8-3.7l-15.6-7.4L696.4,323.2z"/>
					<path class="st44" d="M696.7,323.4l30.9,14.6l15.5,7.3l7.7,3.7l3.9,1.8c1.3,0.6,2.6,1.2,3.9,1.7c-1.3-0.5-2.6-1.1-3.9-1.7
						l-3.9-1.8l-7.7-3.7l-15.5-7.3L696.7,323.4z"/>
					<path class="st45" d="M697,323.5l30.6,14.4l15.3,7.2l7.7,3.6l3.8,1.8c1.3,0.6,2.5,1.2,3.9,1.7c-1.3-0.5-2.6-1.1-3.9-1.7
						l-3.8-1.8l-7.7-3.6l-15.3-7.2L697,323.5z"/>
					<path class="st46" d="M697.3,323.7l30.3,14.3l15.2,7.2l7.6,3.6l3.8,1.8c1.3,0.6,2.5,1.2,3.8,1.7c-1.3-0.5-2.6-1.1-3.8-1.7
						l-3.8-1.8l-7.6-3.6l-15.2-7.2L697.3,323.7z"/>
					<path class="st47" d="M697.6,323.8l30,14.1c10,4.7,20,9.5,30,14.1c-10-4.6-20-9.4-30-14.1L697.6,323.8z"/>
					<polygon class="st48" points="697.9,324 727.6,338 757.3,352 727.6,338 					"/>
					<polygon class="st49" points="698.3,324.1 727.6,338 757,351.8 727.6,338 					"/>
					<polygon class="st50" points="698.6,324.3 727.6,338 756.7,351.7 727.6,338 					"/>
					<polygon class="st51" points="698.9,324.4 727.6,338 756.4,351.6 727.6,338 					"/>
					<polygon class="st52" points="699.2,324.6 727.6,338 756.1,351.4 727.6,338 					"/>
					<polygon class="st53" points="699.5,324.7 727.6,338 755.8,351.3 727.6,338 					"/>
					<polygon class="st54" points="699.8,324.9 727.6,338 755.5,351.1 727.6,338 					"/>
					<polygon class="st55" points="700.1,325 727.6,338 755.1,351 727.6,338 					"/>
					<polygon class="st56" points="700.4,325.1 727.6,338 754.8,350.8 727.6,338 					"/>
					<polygon class="st57" points="700.8,325.3 727.6,338 754.5,350.7 727.6,338 					"/>
					<polygon class="st58" points="701.1,325.4 727.6,338 754.2,350.5 727.6,338 					"/>
					<polygon class="st59" points="701.4,325.6 727.6,338 753.9,350.4 727.6,338 					"/>
					<polygon class="st60" points="701.7,325.7 727.6,338 753.6,350.2 727.6,338 					"/>
					<polygon class="st61" points="702,325.9 727.6,338 753.3,350.1 727.6,338 					"/>
					<polygon class="st62" points="702.3,326 727.6,338 753,349.9 727.6,338 					"/>
					<polygon class="st63" points="702.6,326.2 727.6,338 752.7,349.8 727.6,338 					"/>
					<polygon class="st64" points="702.9,326.3 727.6,338 752.3,349.6 727.6,338 					"/>
					<polygon class="st65" points="703.2,326.5 727.6,338 752,349.5 727.6,338 					"/>
					<polygon class="st66" points="703.6,326.6 727.6,338 751.7,349.4 727.6,338 					"/>
					<polygon class="st67" points="703.9,326.8 727.6,338 751.4,349.2 727.6,338 					"/>
					<polygon class="st68" points="704.2,326.9 727.6,338 751.1,349.1 727.6,338 					"/>
					<polygon class="st69" points="704.5,327 727.6,338 750.8,348.9 727.6,338 					"/>
					<polygon class="st70" points="704.8,327.2 727.6,338 750.5,348.8 727.6,338 					"/>
					<polygon class="st71" points="705.1,327.3 727.6,338 750.2,348.6 727.6,338 					"/>
					<polygon class="st72" points="705.4,327.5 727.6,338 749.8,348.5 727.6,338 					"/>
					<polygon class="st73" points="705.7,327.6 727.6,338 749.5,348.3 727.6,338 					"/>
					<polygon class="st74" points="706.1,327.8 727.6,338 749.2,348.2 727.6,338 					"/>
					<polygon class="st75" points="706.4,327.9 727.6,338 748.9,348 727.6,338 					"/>
					<polygon class="st76" points="706.7,328.1 727.6,338 748.6,347.9 727.6,338 					"/>
					<polygon class="st77" points="707,328.2 727.6,338 748.3,347.7 727.6,338 					"/>
					<polygon class="st78" points="707.3,328.4 727.6,338 748,347.6 727.6,338 					"/>
					<polygon class="st79" points="707.6,328.5 727.6,338 747.7,347.4 727.6,338 					"/>
					<polygon class="st80" points="707.9,328.7 727.6,338 747.4,347.3 727.6,338 					"/>
					<polygon class="st81" points="708.2,328.8 727.6,338 747,347.1 727.6,338 					"/>
					<polygon class="st82" points="708.5,329 727.6,338 746.7,347 727.6,338 					"/>
					<polygon class="st83" points="708.9,329.1 727.6,338 746.4,346.9 727.6,338 					"/>
					<polygon class="st84" points="709.2,329.3 727.6,338 746.1,346.7 727.6,338 					"/>
				</g>
			</g>
		</g>
	</g>
</g>
<linearGradient id="SVGID_3_" gradientUnits="userSpaceOnUse" x1="489.1281" y1="370.5432" x2="792.1973" y2="203.1017" gradientTransform="matrix(1 0 0 -1 0 595.2756)">
	<stop  offset="0" style="stop-color:#231815"/>
	<stop  offset="0.3378" style="stop-color:#251A17;stop-opacity:0.6622"/>
	<stop  offset="0.4771" style="stop-color:#2C211E;stop-opacity:0.5229"/>
	<stop  offset="0.5799" style="stop-color:#372D2A;stop-opacity:0.4201"/>
	<stop  offset="0.6647" style="stop-color:#483F3C;stop-opacity:0.3353"/>
	<stop  offset="0.7385" style="stop-color:#5D5553;stop-opacity:0.2615"/>
	<stop  offset="0.8045" style="stop-color:#78716F;stop-opacity:0.1955"/>
	<stop  offset="0.8648" style="stop-color:#979291;stop-opacity:0.1352"/>
	<stop  offset="0.9206" style="stop-color:#BCB9B8;stop-opacity:7.944739e-02"/>
	<stop  offset="0.9708" style="stop-color:#E4E3E2;stop-opacity:2.922642e-02"/>
	<stop  offset="1" style="stop-color:#FFFFFF;stop-opacity:0"/>
</linearGradient>
<path class="st85" d="M806,442.6c0-0.1,0-0.2,0-0.4c0-0.2,0-0.3,0-0.5c0-0.1,0-0.2,0-0.2c0-0.1,0-0.3,0-0.4s0-0.2,0-0.3
	c0-0.2,0-0.4-0.1-0.6l-31.5-237c0-0.1,0-0.3-0.1-0.4c-0.1-0.3-0.1-0.7-0.2-1c0-0.2-0.1-0.3-0.1-0.5c0-0.1,0-0.2-0.1-0.3
	c0-0.1,0-0.2-0.1-0.3c-0.1-0.4-0.2-0.7-0.3-1.1c0-0.1-0.1-0.2-0.1-0.3s-0.1-0.2-0.1-0.3c-0.1-0.2-0.1-0.3-0.2-0.5
	c-0.1-0.4-0.3-0.8-0.5-1.2v-0.1l0,0c-0.2-0.5-0.4-1-0.7-1.5c0-0.1-0.1-0.1-0.1-0.2c-0.2-0.3-0.4-0.7-0.6-1c-0.1-0.2-0.3-0.5-0.4-0.7
	l-0.1-0.1c-0.2-0.3-0.4-0.6-0.6-0.9c-0.2-0.3-0.4-0.6-0.6-0.8c-0.2-0.3-0.5-0.6-0.7-0.9c-0.2-0.3-0.4-0.5-0.6-0.8
	c-0.2-0.3-0.5-0.5-0.8-0.8c-0.2-0.2-0.4-0.5-0.7-0.7c-0.3-0.3-0.5-0.5-0.8-0.7c-0.2-0.2-0.4-0.4-0.7-0.6c0,0,0,0-0.1-0.1
	c-0.4-0.3-0.8-0.6-1.2-0.9c-0.2-0.1-0.3-0.3-0.5-0.4l0,0c-0.1,0-0.1-0.1-0.2-0.1c-0.4-0.3-0.8-0.5-1.2-0.7c-0.1-0.1-0.2-0.1-0.3-0.1
	c-0.1-0.1-0.3-0.2-0.4-0.2c-0.2-0.1-0.4-0.2-0.6-0.3c-0.3-0.1-0.6-0.3-0.8-0.4c-0.1,0-0.1-0.1-0.2-0.1h-0.1c-0.3-0.2-0.7-0.3-1-0.4
	c-0.2-0.1-0.4-0.1-0.6-0.2c-0.1,0-0.2-0.1-0.2-0.1c-0.1,0-0.1-0.1-0.2-0.1c-0.3-0.1-0.7-0.2-1-0.3c-0.2,0-0.3-0.1-0.5-0.1
	c-0.1,0-0.1,0-0.2-0.1c-0.1,0-0.1,0-0.2-0.1c-0.3-0.1-0.6-0.1-0.9-0.2c-0.2,0-0.4-0.1-0.6-0.1c-0.1,0-0.1,0-0.2,0
	c-0.1,0-0.1,0-0.2,0c-0.3,0-0.6-0.1-1-0.1c-0.3,0-0.5,0-0.8-0.1l-229.1-13.4h-0.2c-0.3,0-0.7,0-1,0c-0.1,0-0.3,0-0.4,0
	c-0.1,0-0.2,0-0.3,0s-0.2,0-0.3,0c-0.3,0-0.7,0-1,0.1h-0.1c-0.1,0-0.2,0-0.2,0c-0.3,0-0.5,0.1-0.7,0.1c-0.1,0-0.3,0.1-0.4,0.1
	c-0.1,0-0.3,0.1-0.4,0.1c-0.1,0-0.2,0-0.3,0.1c-0.2,0.1-0.4,0.1-0.6,0.2c-0.2,0.1-0.4,0.1-0.5,0.2c-0.1,0-0.1,0-0.2,0.1
	c-0.1,0.1-0.3,0.1-0.4,0.2c-0.3,0.1-0.6,0.2-0.9,0.4c-0.1,0-0.2,0.1-0.2,0.1c-0.3,0.1-0.6,0.3-0.8,0.4l0,0c-0.4,0.2-0.7,0.5-1.1,0.7
	c-0.1,0.1-0.2,0.1-0.3,0.2c-0.4,0.3-0.7,0.5-1,0.8l-4.1,3.6l0.1-0.1c-4,3.4-6.1,8.9-5.2,15.2l31.5,237c1.5,11,11.3,20.5,22,21.1
	L785,462.6c4.6,0.3,8.6-1.2,11.6-3.8l0,0l4.1-3.6c0.5-0.4,0.9-0.9,1.4-1.4l0,0c0.4-0.5,0.8-1,1.2-1.5l0,0l0,0
	c0.3-0.4,0.6-0.9,0.8-1.4l0.1-0.1v-0.1c0.2-0.4,0.4-0.7,0.5-1.1l0,0c0-0.1,0-0.1,0.1-0.2c0.1-0.3,0.2-0.5,0.3-0.8v-0.1
	c0-0.1,0.1-0.2,0.1-0.3c0.1-0.2,0.1-0.4,0.2-0.6c0-0.1,0-0.1,0-0.2s0.1-0.2,0.1-0.4c0-0.2,0.1-0.3,0.1-0.5v-0.1c0-0.1,0-0.3,0.1-0.4
	c0-0.1,0.1-0.3,0.1-0.4v-0.1c0-0.2,0-0.4,0.1-0.6c0-0.1,0-0.2,0-0.3c0,0,0,0,0-0.1c0-0.3,0-0.6,0.1-0.9l0,0c0-0.1,0-0.1,0-0.2
	C806,443.2,806,442.9,806,442.6C806,442.7,806,442.6,806,442.6z M801.8,445.2c0-0.1,0-0.1,0-0.2l0,0
	C801.8,445.1,801.8,445.2,801.8,445.2z M769.8,204.6L769.8,204.6c-0.1-0.6-0.3-1.2-0.5-1.7l0,0C769.5,203.4,769.6,204,769.8,204.6z
	 M769.2,202.5L769.2,202.5c-0.2-0.5-0.4-1-0.6-1.5C768.8,201.5,769,202,769.2,202.5z M768.5,200.7c-0.2-0.5-0.5-1.1-0.8-1.6l0,0
	C768,199.6,768.2,200.1,768.5,200.7z M767.1,198.1L767.1,198.1L767.1,198.1L767.1,198.1z M764.3,194.1c0-0.1-0.1-0.1-0.1-0.2l0,0
	C764.2,193.9,764.2,194,764.3,194.1z M763.4,193.1c-0.1-0.1-0.3-0.3-0.4-0.4C763.1,192.8,763.2,192.9,763.4,193.1L763.4,193.1z
	 M759.7,189.9c-0.1-0.1-0.2-0.1-0.3-0.2l0,0C759.6,189.8,759.7,189.8,759.7,189.9z M759.3,189.6L759.3,189.6
	c-0.5-0.3-0.9-0.6-1.4-0.9l0,0C758.3,189,758.8,189.3,759.3,189.6z M757.5,188.5L757.5,188.5c-0.5-0.3-0.9-0.5-1.4-0.7l0,0
	C756.5,187.9,757,188.2,757.5,188.5z M755.9,187.6L755.9,187.6c-0.4-0.2-0.8-0.3-1.2-0.5C755.1,187.3,755.5,187.4,755.9,187.6z
	 M754,186.8L754,186.8c-0.6-0.2-1.1-0.4-1.7-0.5l0,0C752.8,186.5,753.4,186.6,754,186.8z M751,186c-0.2,0-0.5-0.1-0.7-0.1l0,0
	C750.5,185.9,750.7,186,751,186z M515.9,172.3c-0.1,0-0.1,0-0.2,0C515.7,172.3,515.8,172.3,515.9,172.3L515.9,172.3z M510,174.2
	L510,174.2L510,174.2c0,0,0,0-0.1,0.1C509.9,174.3,509.9,174.2,510,174.2z M519.1,172.2L519.1,172.2L519.1,172.2l229.1,13.4
	c0.6,0,1.3,0.1,1.9,0.2c-0.6-0.1-1.3-0.2-1.9-0.2L519.1,172.2z M770.2,206.8c-0.1-0.6-0.2-1.3-0.3-1.9l0,0
	C770,205.5,770.1,206.1,770.2,206.8l31.5,237l0,0l0,0L770.2,206.8z M797.9,457.5L797.9,457.5C798,457.5,798,457.5,797.9,457.5
	C798,457.5,798,457.5,797.9,457.5C798,457.5,798,457.5,797.9,457.5z M799.1,456L799.1,456c0,0,0-0.1,0.1-0.1
	C799.2,455.9,799.2,455.9,799.1,456L799.1,456z M800,454.5c0,0,0-0.1,0.1-0.1C800.1,454.4,800.1,454.4,800,454.5
	C800.1,454.4,800,454.4,800,454.5z M800.5,453.4c0,0,0-0.1,0.1-0.1C800.6,453.3,800.6,453.3,800.5,453.4
	C800.6,453.3,800.6,453.3,800.5,453.4z M801.5,450.3c0-0.1,0-0.1,0-0.2C801.5,450.2,801.5,450.2,801.5,450.3L801.5,450.3z
	 M801.7,449.4c0-0.1,0-0.2,0-0.3C801.7,449.2,801.7,449.2,801.7,449.4C801.7,449.3,801.7,449.3,801.7,449.4z M801.8,448.4
	c0-0.1,0-0.3,0-0.4c0,0.1,0,0.1,0,0.2C801.8,448.3,801.8,448.4,801.8,448.4z M801.9,447.4c0-0.1,0-0.3,0-0.4c0,0.1,0,0.1,0,0.2
	C801.9,447.3,801.9,447.4,801.9,447.4z M801.9,446.4c0-0.1,0-0.2,0-0.3v0.1C801.9,446.2,801.9,446.3,801.9,446.4z"/>
<g>
	
		<linearGradient id="SVGID_4_" gradientUnits="userSpaceOnUse" x1="684.0184" y1="627.3474" x2="486.2874" y2="328.7123" gradientTransform="matrix(0.9988 4.857088e-02 4.857088e-02 -0.9988 44.2371 644.9926)">
		<stop  offset="0" style="stop-color:#6D6CB0"/>
		<stop  offset="0.5146" style="stop-color:#7091CA"/>
		<stop  offset="0.999" style="stop-color:#70C4BF"/>
	</linearGradient>
	<path class="st86" d="M710.7,132.1c10.6,1.3,19.8,11.3,20.6,22.4L748.1,393c0.8,11.1-7.2,19.1-17.8,17.8l-227.8-27.6
		c-10.6-1.3-19.8-11.3-20.6-22.4l-16.8-238.5c-0.8-11.1,7.2-19.1,17.8-17.8L710.7,132.1z"/>
	
		<linearGradient id="SVGID_5_" gradientUnits="userSpaceOnUse" x1="416.1454" y1="678.3706" x2="734.6553" y2="317.5625" gradientTransform="matrix(0.9988 4.857088e-02 4.857088e-02 -0.9988 44.2371 644.9926)">
		<stop  offset="0" style="stop-color:#243457"/>
		<stop  offset="0.5385" style="stop-color:#495A80"/>
		<stop  offset="0.6777" style="stop-color:#45567B"/>
		<stop  offset="0.8325" style="stop-color:#39496E"/>
		<stop  offset="0.9943" style="stop-color:#253558"/>
		<stop  offset="1" style="stop-color:#243457"/>
	</linearGradient>
	<path class="st87" d="M752.4,392.9c0-0.2,0-0.5,0.1-0.7v-0.1c0-0.1,0-0.2,0-0.4c0-0.2,0-0.3,0-0.5c0-0.1,0-0.2,0-0.2
		c0-0.1,0-0.3,0-0.4s0-0.2,0-0.3c0-0.2,0-0.4,0-0.6l-16.8-238.5c0-0.1,0-0.3,0-0.4c0-0.3-0.1-0.7-0.1-1c0-0.2-0.1-0.3-0.1-0.5
		c0-0.1,0-0.2,0-0.3s0-0.2-0.1-0.3c-0.1-0.4-0.1-0.7-0.2-1.1c0-0.1-0.1-0.2-0.1-0.3s-0.1-0.2-0.1-0.3c0-0.2-0.1-0.4-0.1-0.5
		c-0.1-0.4-0.3-0.8-0.4-1.2v-0.1l0,0c-0.2-0.5-0.4-1-0.6-1.5c0-0.1-0.1-0.1-0.1-0.2c-0.2-0.3-0.3-0.7-0.5-1
		c-0.1-0.2-0.2-0.5-0.4-0.7l-0.1-0.1c-0.2-0.3-0.4-0.6-0.6-0.9c-0.2-0.3-0.3-0.6-0.5-0.9c-0.2-0.3-0.4-0.6-0.6-0.9
		c-0.2-0.3-0.4-0.5-0.6-0.8c-0.2-0.3-0.5-0.6-0.7-0.8c-0.2-0.3-0.4-0.5-0.6-0.8c-0.3-0.3-0.5-0.5-0.8-0.8c-0.2-0.2-0.4-0.4-0.6-0.6
		c0,0,0,0-0.1-0.1c-0.4-0.3-0.7-0.6-1.1-1c-0.2-0.1-0.3-0.3-0.5-0.4l0,0c-0.1,0-0.1-0.1-0.2-0.1c-0.4-0.3-0.7-0.6-1.1-0.8
		c-0.1-0.1-0.2-0.1-0.2-0.2c-0.1-0.1-0.3-0.2-0.4-0.3c-0.2-0.1-0.4-0.2-0.5-0.4c-0.3-0.2-0.5-0.3-0.8-0.5c-0.1,0-0.1-0.1-0.2-0.1
		h-0.1c-0.3-0.2-0.7-0.3-1-0.5c-0.2-0.1-0.4-0.2-0.5-0.2s-0.2-0.1-0.2-0.1c-0.1,0-0.1-0.1-0.2-0.1c-0.3-0.1-0.6-0.3-1-0.4
		c-0.2-0.1-0.3-0.1-0.5-0.2c-0.1,0-0.1,0-0.2-0.1c-0.1,0-0.1-0.1-0.2-0.1c-0.3-0.1-0.6-0.2-0.9-0.3c-0.2-0.1-0.4-0.1-0.6-0.1
		c-0.1,0-0.1,0-0.2,0c-0.1,0-0.1,0-0.2,0c-0.3-0.1-0.6-0.1-0.9-0.2c-0.3,0-0.5-0.1-0.8-0.1l-227.8-27.6h-0.2c-0.3,0-0.7-0.1-1-0.1
		c-0.1,0-0.3,0-0.4,0s-0.2,0-0.3,0c-0.1,0-0.2,0-0.3,0c-0.3,0-0.7,0-1,0h-0.1c-0.1,0-0.2,0-0.2,0c-0.3,0-0.5,0-0.8,0.1
		c-0.1,0-0.3,0-0.4,0.1c-0.1,0-0.3,0-0.4,0.1c-0.1,0-0.2,0-0.3,0.1c-0.2,0-0.4,0.1-0.6,0.1s-0.4,0.1-0.5,0.1s-0.1,0-0.2,0
		c-0.2,0-0.3,0.1-0.4,0.2c-0.3,0.1-0.6,0.2-0.9,0.3c-0.1,0-0.2,0-0.2,0.1c-0.3,0.1-0.6,0.3-0.9,0.4l0,0c-0.4,0.2-0.8,0.4-1.1,0.6
		c-0.1,0.1-0.2,0.1-0.3,0.2c-0.4,0.2-0.7,0.5-1.1,0.7l-4.3,3.3c0.3-0.3,0.7-0.5,1.1-0.7c0.1-0.1,0.2-0.1,0.3-0.2
		c0.4-0.2,0.8-0.4,1.1-0.6l0,0c0.4-0.2,0.7-0.3,1.1-0.5c0.3-0.1,0.6-0.2,0.9-0.3c0.2-0.1,0.4-0.1,0.6-0.2c0.2,0,0.4-0.1,0.5-0.1
		c0.3-0.1,0.6-0.1,0.9-0.2c0.1,0,0.3,0,0.4-0.1c0.4-0.1,0.8-0.1,1.2-0.1c0.1,0,0.2,0,0.2,0c0.5,0,0.9,0,1.4,0c0.1,0,0.2,0,0.3,0
		c0.5,0,1,0.1,1.5,0.1l227.8,27.6c0.6,0.1,1.3,0.2,1.9,0.3c0.1,0,0.1,0,0.2,0c0.6,0.1,1.2,0.3,1.7,0.5c0.1,0,0.1,0,0.2,0.1
		c0.6,0.2,1.1,0.4,1.7,0.6c0.1,0,0.1,0.1,0.2,0.1c0.6,0.2,1.1,0.5,1.6,0.8c0.1,0,0.1,0.1,0.2,0.1c0.5,0.3,0.9,0.5,1.4,0.8
		c0.1,0.1,0.3,0.2,0.4,0.3c0.5,0.3,0.9,0.6,1.3,1c0.1,0,0.1,0.1,0.2,0.1c0.2,0.1,0.3,0.3,0.5,0.4c0.4,0.3,0.7,0.6,1.1,0.9
		c0.2,0.2,0.5,0.5,0.7,0.7c0.3,0.3,0.5,0.5,0.8,0.8c0.2,0.2,0.4,0.5,0.6,0.8c0.2,0.3,0.5,0.6,0.7,0.8c0.2,0.3,0.4,0.5,0.6,0.8
		c0.2,0.3,0.4,0.6,0.6,0.9c0.2,0.3,0.3,0.6,0.5,0.8c0.2,0.3,0.4,0.6,0.6,0.9c0.2,0.3,0.3,0.6,0.4,0.9c0.2,0.3,0.3,0.7,0.5,1
		c0.3,0.6,0.5,1.1,0.7,1.7v0.1c0.2,0.6,0.4,1.1,0.5,1.7c0,0.1,0.1,0.2,0.1,0.3c0.1,0.6,0.3,1.2,0.4,1.8c0,0.1,0,0.2,0,0.3
		c0.1,0.6,0.2,1.3,0.2,1.9L748.1,393c0,0.3,0,0.6,0,0.9c0,0.1,0,0.3,0,0.4c0,0.2,0,0.5,0,0.7c0,0.1,0,0.3,0,0.4c0,0.3,0,0.6-0.1,0.8
		c0,0.1,0,0.1,0,0.2c0,0.3-0.1,0.7-0.1,1c0,0.1,0,0.2-0.1,0.3c0,0.2-0.1,0.4-0.1,0.7c0,0.1-0.1,0.3-0.1,0.4c0,0.2-0.1,0.4-0.1,0.5
		c0,0.2-0.1,0.3-0.2,0.5c0,0.2-0.1,0.3-0.1,0.5c-0.1,0.2-0.1,0.4-0.2,0.6c-0.1,0.1-0.1,0.3-0.2,0.4c-0.1,0.3-0.2,0.5-0.3,0.8
		c0,0.1-0.1,0.2-0.1,0.2c-0.2,0.4-0.4,0.7-0.6,1.1c0,0.1-0.1,0.1-0.1,0.2c-0.3,0.4-0.6,0.9-0.9,1.3l0,0c-0.4,0.5-0.8,1-1.3,1.5l0,0
		c-0.5,0.5-0.9,0.9-1.4,1.3l4.3-3.3c0.5-0.4,1-0.8,1.4-1.3l0,0c0.5-0.5,0.9-0.9,1.3-1.5l0,0l0,0c0.3-0.4,0.6-0.8,0.9-1.3l0.1-0.1
		c0,0,0-0.1,0.1-0.1c0.2-0.3,0.4-0.7,0.6-1.1l0,0c0-0.1,0.1-0.1,0.1-0.2c0.1-0.3,0.2-0.5,0.3-0.8v-0.1c0-0.1,0.1-0.2,0.1-0.3
		c0.1-0.2,0.1-0.4,0.2-0.6c0-0.1,0-0.1,0.1-0.1c0-0.1,0.1-0.2,0.1-0.3c0-0.2,0.1-0.3,0.1-0.5V396c0-0.1,0.1-0.3,0.1-0.4
		s0.1-0.3,0.1-0.4v-0.1c0-0.2,0.1-0.4,0.1-0.6c0-0.1,0-0.2,0.1-0.3c0,0,0,0,0-0.1c0-0.3,0.1-0.6,0.1-0.9l0,0
		C752.4,393.1,752.4,393,752.4,392.9z"/>
</g>
<linearGradient id="SVGID_6_" gradientUnits="userSpaceOnUse" x1="418.6622" y1="428.7678" x2="622.9409" y2="103.9312" gradientTransform="matrix(1 0 0 -1 0 595.2756)">
	<stop  offset="0" style="stop-color:#231815"/>
	<stop  offset="0.3378" style="stop-color:#251A17;stop-opacity:0.6622"/>
	<stop  offset="0.4771" style="stop-color:#2C211E;stop-opacity:0.5229"/>
	<stop  offset="0.5799" style="stop-color:#372D2A;stop-opacity:0.4201"/>
	<stop  offset="0.6647" style="stop-color:#483F3C;stop-opacity:0.3353"/>
	<stop  offset="0.7385" style="stop-color:#5D5553;stop-opacity:0.2615"/>
	<stop  offset="0.8045" style="stop-color:#78716F;stop-opacity:0.1955"/>
	<stop  offset="0.8648" style="stop-color:#979291;stop-opacity:0.1352"/>
	<stop  offset="0.9206" style="stop-color:#BCB9B8;stop-opacity:7.944739e-02"/>
	<stop  offset="0.9708" style="stop-color:#E4E3E2;stop-opacity:2.922642e-02"/>
	<stop  offset="1" style="stop-color:#FFFFFF;stop-opacity:0"/>
</linearGradient>
<path class="st88" d="M698.4,324.5c0-0.1,0-0.2,0-0.3c0-0.1,0-0.2,0-0.2c0-0.1,0-0.2,0-0.3c0-0.1,0-0.2,0-0.3c0-0.1,0-0.1,0-0.2
	s0-0.3,0-0.4s0-0.2,0-0.3c0,0,0,0,0-0.1c0-0.3-0.1-0.5-0.1-0.8l0,0c0,0,0,0,0-0.1c0-0.2-0.1-0.5-0.1-0.7v-0.1c0-0.1,0-0.2-0.1-0.3
	c0-0.1-0.1-0.3-0.1-0.4s0-0.1,0-0.2s-0.1-0.2-0.1-0.3c0-0.1-0.1-0.2-0.1-0.3c0-0.1,0-0.1-0.1-0.2c0-0.1-0.1-0.3-0.1-0.4
	s0-0.2-0.1-0.3c0-0.1-0.1-0.2-0.1-0.3c0-0.1-0.1-0.3-0.1-0.4s-0.1-0.2-0.1-0.2c0-0.1-0.1-0.2-0.1-0.3c-0.1-0.2-0.1-0.3-0.2-0.5
	c0-0.1-0.1-0.1-0.1-0.2s-0.1-0.2-0.1-0.2c-0.1-0.2-0.2-0.4-0.2-0.6c0-0.1-0.1-0.2-0.1-0.2c0-0.1-0.1-0.1-0.1-0.2
	c-0.1-0.2-0.2-0.4-0.3-0.6c0-0.1-0.1-0.2-0.1-0.3c0,0,0-0.1-0.1-0.1c-0.1-0.3-0.3-0.6-0.4-0.8c0-0.1-0.1-0.1-0.1-0.2l0,0
	c-0.2-0.4-0.4-0.8-0.7-1.1c0,0,0-0.1-0.1-0.1c0-0.1-0.1-0.1-0.1-0.2c-0.2-0.4-0.5-0.7-0.7-1c0-0.1-0.1-0.1-0.1-0.2c0,0,0,0-0.1-0.1
	c-0.4-0.5-0.7-1-1.1-1.5l-0.1-0.1c0,0,0-0.1-0.1-0.1c-0.5-0.7-1.1-1.3-1.6-1.9l0,0c-0.6-0.6-1.2-1.3-1.8-1.8c0,0,0,0-0.1-0.1
	c0,0-0.1-0.1-0.2-0.1c-0.4-0.4-0.9-0.8-1.3-1.2l0,0l0,0c-0.3-0.3-0.7-0.6-1-0.8l-0.1-0.1c-0.1-0.1-0.2-0.2-0.3-0.2
	c-0.2-0.1-0.4-0.3-0.6-0.4l-0.1-0.1c-0.1-0.1-0.2-0.1-0.3-0.2c-0.2-0.1-0.3-0.2-0.5-0.4c-0.1,0-0.1-0.1-0.2-0.1
	c-0.1-0.1-0.2-0.2-0.4-0.2c-0.1-0.1-0.3-0.2-0.4-0.3c-0.1,0-0.1-0.1-0.2-0.1c-0.2-0.1-0.5-0.3-0.7-0.4L446.2,162.3l-0.3-0.2
	c-0.3-0.2-0.6-0.4-0.9-0.5c-0.1-0.1-0.2-0.1-0.3-0.2c-0.1,0-0.2-0.1-0.3-0.1c-0.1-0.1-0.2-0.1-0.3-0.2c-0.3-0.1-0.6-0.3-0.9-0.4
	c-0.1,0-0.1,0-0.2-0.1c-0.1,0-0.1-0.1-0.2-0.1c-0.2-0.1-0.3-0.1-0.5-0.2c-0.3-0.1-0.6-0.2-0.9-0.3h-0.1h-0.1
	c-0.2-0.1-0.4-0.2-0.6-0.2c-0.3-0.1-0.6-0.2-0.8-0.3l0,0l0,0c-0.3-0.1-0.5-0.2-0.8-0.2c-0.2-0.1-0.5-0.1-0.7-0.2h-0.1c0,0,0,0-0.1,0
	c-0.3-0.1-0.6-0.1-0.8-0.2c-0.2,0-0.3,0-0.5-0.1c-0.1,0-0.1,0-0.2,0s-0.1,0-0.2,0c-0.3,0-0.6-0.1-0.9-0.1c-0.1,0-0.2,0-0.2,0
	c-0.1,0-0.2,0-0.3,0c-0.1,0-0.3,0-0.4,0c-0.3,0-0.5,0-0.8,0h-0.1l0,0c-0.3,0-0.7,0-1,0c-0.1,0-0.1,0-0.2,0s-0.3,0-0.4,0
	c-0.2,0-0.3,0-0.5,0c-0.1,0-0.2,0-0.3,0.1c-0.2,0-0.4,0.1-0.5,0.1s-0.2,0-0.3,0.1c-0.1,0-0.2,0.1-0.3,0.1c-0.3,0.1-0.6,0.1-0.9,0.2
	c-0.1,0-0.2,0.1-0.3,0.1c-0.1,0-0.1,0.1-0.2,0.1c-0.2,0.1-0.5,0.2-0.7,0.3s-0.3,0.1-0.5,0.2c-0.2,0.1-0.5,0.2-0.7,0.4
	c-0.1,0.1-0.3,0.2-0.4,0.2c-0.2,0.2-0.5,0.3-0.7,0.5c-0.1,0.1-0.2,0.2-0.3,0.2c-0.3,0.3-0.6,0.6-0.9,0.9l-6.2,6.6
	c0.1-0.1,0.3-0.3,0.4-0.4c-1.4,1.3-2.4,3-3,5.1l-50.5,191.1c-2.4,8.9,4.7,21.3,15.7,27.7L617.1,530c8.8,5.1,17.5,4.9,21.8,0
	c-0.1,0.1-0.1,0.2-0.2,0.3l6.2-6.6c0.2-0.3,0.5-0.5,0.7-0.8c0,0,0-0.1,0.1-0.1c0.1-0.2,0.3-0.4,0.4-0.6c0.1-0.1,0.2-0.3,0.3-0.4
	c0,0,0-0.1,0.1-0.1c0.1-0.1,0.1-0.2,0.2-0.3c0.1-0.2,0.2-0.4,0.3-0.6c0-0.1,0.1-0.2,0.1-0.3s0.1-0.2,0.1-0.3s0.1-0.2,0.1-0.3
	c0.1-0.3,0.2-0.6,0.3-0.9l0,0l50.5-191.1c0.1-0.3,0.1-0.5,0.2-0.8l0,0c0-0.1,0-0.2,0-0.3c0-0.2,0.1-0.3,0.1-0.5c0,0,0,0,0-0.1
	s0-0.2,0-0.3c0-0.1,0-0.3,0-0.4v-0.1c0-0.1,0-0.2,0-0.3c0-0.1,0-0.2,0-0.3C698.4,324.6,698.4,324.5,698.4,324.5z M692.2,331.6v-0.1
	C692.2,331.5,692.2,331.5,692.2,331.6L692.2,331.6z M692.2,330.7L692.2,330.7c0-0.2,0-0.4,0-0.5l0,0
	C692.2,330.4,692.2,330.5,692.2,330.7z M692.1,329c0-0.1,0-0.2,0-0.2S692.1,328.9,692.1,329L692.1,329z M692,328.1L692,328.1
	c0-0.3-0.1-0.5-0.1-0.8l0,0C691.9,327.5,691.9,327.8,692,328.1z M691.8,327C691.8,326.9,691.8,326.9,691.8,327
	C691.8,326.9,691.8,326.9,691.8,327L691.8,327z M691.6,326L691.6,326c0-0.2-0.1-0.3-0.1-0.5l0,0C691.5,325.7,691.5,325.8,691.6,326z
	 M691.3,325.1c0-0.1,0-0.1-0.1-0.2C691.2,324.9,691.3,325,691.3,325.1L691.3,325.1z M690.9,323.9c0-0.1-0.1-0.2-0.1-0.2l0,0
	C690.8,323.7,690.9,323.8,690.9,323.9z M690.2,322.2L690.2,322.2c-0.1-0.1-0.1-0.3-0.2-0.4l0,0C690.1,321.9,690.1,322,690.2,322.2z
	 M689.7,321.1L689.7,321.1c-0.1-0.1-0.1-0.3-0.2-0.4l0,0C689.6,320.9,689.6,321,689.7,321.1z M689.1,319.9L689.1,319.9
	c0-0.1-0.1-0.2-0.1-0.3l0,0C689,319.7,689,319.8,689.1,319.9z M687.3,317L687.3,317L687.3,317L687.3,317z M686.1,315.5
	c0-0.1-0.1-0.1-0.1-0.2C686,315.3,686.1,315.4,686.1,315.5L686.1,315.5z M684.3,313.3L684.3,313.3L684.3,313.3L684.3,313.3
	L684.3,313.3z M682.5,311.4L682.5,311.4l-0.1-0.1C682.4,311.4,682.4,311.4,682.5,311.4z M679.7,309.1c-0.1-0.1-0.1-0.1-0.2-0.2l0,0
	C679.6,309,679.7,309.1,679.7,309.1z M677.4,307.5L677.4,307.5L677.4,307.5L677.4,307.5z M676.9,307.2L676.9,307.2
	c-0.3-0.2-0.6-0.4-0.9-0.5C676.4,306.8,676.7,307,676.9,307.2z M436.7,167.2c0.1,0,0.1,0.1,0.2,0.1c0.2,0.1,0.5,0.2,0.7,0.3
	c-0.4-0.2-0.9-0.4-1.3-0.6C436.4,167.1,436.5,167.2,436.7,167.2z M435.1,166.6h0.1c0.1,0,0.3,0.1,0.4,0.2c-0.4-0.2-0.9-0.3-1.3-0.5
	C434.6,166.4,434.8,166.5,435.1,166.6z M432.1,165.7c0.5,0.1,1,0.2,1.5,0.4l0,0c0.1,0,0.1,0,0.2,0.1
	C433.2,166,432.6,165.9,432.1,165.7L432.1,165.7C432.1,165.7,432.1,165.7,432.1,165.7z M430.7,165.4c0.3,0.1,0.7,0.1,1,0.2
	c-0.5-0.1-1-0.2-1.5-0.3c0.1,0,0.1,0,0.2,0C430.5,165.4,430.6,165.4,430.7,165.4z M428.9,165.2c0.1,0,0.2,0,0.3,0
	c0.2,0,0.3,0,0.5,0.1c-0.4,0-0.8-0.1-1.2-0.1C428.6,165.2,428.8,165.2,428.9,165.2z M427.6,165.2L427.6,165.2c0.2,0,0.3,0,0.3,0
	c-0.4,0-0.8,0-1.3,0C427,165.2,427.3,165.2,427.6,165.2z M426,165.3c0.1,0,0.2,0,0.3,0c-0.4,0-0.9,0.1-1.3,0.2c0.1,0,0.1,0,0.2,0
	C425.4,165.3,425.7,165.3,426,165.3z M424.4,165.5c-0.3,0.1-0.5,0.1-0.8,0.2c0.1,0,0.3-0.1,0.4-0.1
	C424.2,165.5,424.3,165.5,424.4,165.5z M422.7,166c0.1,0,0.1,0,0.2-0.1c-0.3,0.1-0.6,0.2-0.9,0.4l0,0
	C422.2,166.2,422.4,166.1,422.7,166z M421.5,166.5L421.5,166.5c-0.3,0.2-0.7,0.4-1.1,0.6c0.1-0.1,0.2-0.1,0.4-0.2
	C421,166.7,421.2,166.6,421.5,166.5z M419.3,167.8c0.1-0.1,0.2-0.2,0.3-0.2c0.1-0.1,0.2-0.2,0.4-0.3c-0.3,0.2-0.5,0.4-0.8,0.6
	C419.3,167.9,419.3,167.9,419.3,167.8z M438.1,167.9c0,0,0.1,0,0.1,0.1c0.1,0,0.2,0.1,0.2,0.1c0.5,0.3,1,0.5,1.5,0.8
	C439.4,168.6,438.8,168.2,438.1,167.9z M639.3,529.5c0.2-0.2,0.3-0.5,0.5-0.7c-0.1,0.2-0.2,0.3-0.3,0.5
	C639.4,529.3,639.3,529.4,639.3,529.5z M640.2,528.1c0,0.1-0.1,0.1-0.1,0.2c0.2-0.3,0.3-0.6,0.5-0.9c-0.1,0.1-0.1,0.3-0.2,0.4
	S640.2,528,640.2,528.1z M640.9,526.6c0,0.1-0.1,0.2-0.1,0.3c0.2-0.5,0.4-0.9,0.5-1.5C641.1,525.9,641,526.3,640.9,526.6z
	 M691.7,334.4c0.1-0.3,0.1-0.5,0.2-0.8l0,0C691.9,333.8,691.8,334.1,691.7,334.4z M692,333c0-0.1,0-0.2,0-0.2l0,0
	C692,332.8,692,332.9,692,333z M692.1,332.4L692.1,332.4c0-0.2,0-0.4,0.1-0.5l0,0C692.1,332.1,692.1,332.3,692.1,332.4z"/>
<g>
	
		<linearGradient id="SVGID_7_" gradientUnits="userSpaceOnUse" x1="608.6866" y1="478.814" x2="327.3787" y2="344.2753" gradientTransform="matrix(0.9988 4.857088e-02 4.857088e-02 -0.9988 44.2371 644.9926)">
		<stop  offset="0" style="stop-color:#6D6CB0"/>
		<stop  offset="0.5146" style="stop-color:#7091CA"/>
		<stop  offset="0.999" style="stop-color:#70C4BF"/>
	</linearGradient>
	<path class="st89" d="M370.3,101.1c2.4-8.9,13.2-10.9,24.2-4.5l236.1,137.7c11,6.4,18,18.8,15.7,27.7l-50.5,191.1
		c-2.4,8.9-13.2,10.9-24.2,4.5L335.5,319.9c-11-6.4-18-18.8-15.7-27.7L370.3,101.1z"/>
	
		<linearGradient id="SVGID_8_" gradientUnits="userSpaceOnUse" x1="727.7402" y1="450.437" x2="293.5474" y2="368.8984" gradientTransform="matrix(0.9988 4.857088e-02 4.857088e-02 -0.9988 44.2371 644.9926)">
		<stop  offset="0" style="stop-color:#243457"/>
		<stop  offset="0.5385" style="stop-color:#495A80"/>
		<stop  offset="0.6777" style="stop-color:#45567B"/>
		<stop  offset="0.8325" style="stop-color:#39496E"/>
		<stop  offset="0.9943" style="stop-color:#253558"/>
		<stop  offset="1" style="stop-color:#243457"/>
	</linearGradient>
	<path class="st90" d="M652.8,252.7c0-0.1,0-0.2,0-0.3s0-0.1,0-0.2c0-0.1,0-0.2,0-0.3s0-0.2,0-0.2c0-0.1,0-0.2,0-0.3s0-0.2,0-0.3
		s0-0.1,0-0.2c0-0.1,0-0.3,0-0.4c0-0.1,0-0.2,0-0.3c0,0,0,0,0-0.1c0-0.3-0.1-0.5-0.1-0.8l0,0c0,0,0,0,0-0.1c0-0.2-0.1-0.5-0.1-0.7
		v-0.1c0-0.1,0-0.2-0.1-0.3c0-0.1-0.1-0.3-0.1-0.4c0-0.1,0-0.1,0-0.2c0-0.1-0.1-0.2-0.1-0.3s-0.1-0.2-0.1-0.3s0-0.1-0.1-0.2
		c0-0.1-0.1-0.3-0.1-0.4c0-0.1,0-0.2-0.1-0.3c0-0.1-0.1-0.2-0.1-0.3s-0.1-0.3-0.1-0.4c0-0.1-0.1-0.2-0.1-0.2c0-0.1-0.1-0.2-0.1-0.3
		c-0.1-0.2-0.1-0.3-0.2-0.5c0-0.1-0.1-0.1-0.1-0.2c0-0.1-0.1-0.2-0.1-0.2c-0.1-0.2-0.2-0.4-0.2-0.6c0-0.1-0.1-0.2-0.1-0.2
		c0-0.1-0.1-0.1-0.1-0.2c-0.1-0.2-0.2-0.4-0.3-0.6c0-0.1-0.1-0.2-0.1-0.3c0,0,0-0.1-0.1-0.1c-0.1-0.3-0.3-0.6-0.4-0.8
		c0-0.1-0.1-0.1-0.1-0.2l0,0c-0.2-0.4-0.4-0.8-0.7-1.1c0,0,0-0.1-0.1-0.1c0-0.1-0.1-0.1-0.1-0.2c-0.2-0.4-0.5-0.7-0.7-1
		c0-0.1-0.1-0.1-0.1-0.2c0,0,0,0-0.1-0.1c-0.4-0.5-0.7-1-1.1-1.5l-0.1-0.1c0,0,0-0.1-0.1-0.1c-0.5-0.7-1.1-1.3-1.6-1.9l0,0
		c-0.6-0.6-1.2-1.3-1.8-1.8c0,0,0,0-0.1-0.1c0,0-0.1-0.1-0.2-0.1c-0.4-0.4-0.9-0.8-1.3-1.2l0,0l0,0c-0.3-0.3-0.7-0.6-1-0.8l-0.1-0.1
		c-0.1-0.1-0.2-0.2-0.3-0.2c-0.2-0.1-0.4-0.3-0.6-0.4l-0.1-0.1c-0.1-0.1-0.2-0.1-0.3-0.2c-0.2-0.1-0.3-0.2-0.5-0.4
		c-0.1,0-0.1-0.1-0.2-0.1c-0.1-0.1-0.2-0.2-0.4-0.2c-0.1-0.1-0.3-0.2-0.4-0.3c-0.1,0-0.1-0.1-0.2-0.1c-0.2-0.1-0.5-0.3-0.7-0.4
		L400.7,90l-0.3-0.2c-0.3-0.2-0.6-0.4-0.9-0.5c-0.1-0.1-0.2-0.1-0.3-0.2c-0.1,0-0.2-0.1-0.3-0.1c-0.1-0.1-0.2-0.1-0.3-0.2
		c-0.3-0.1-0.6-0.3-0.9-0.4c-0.1,0-0.1,0-0.2-0.1c-0.1,0-0.1-0.1-0.2-0.1c-0.2-0.1-0.3-0.1-0.5-0.2c-0.3-0.1-0.6-0.2-0.9-0.3h-0.1
		h-0.1c-0.2-0.1-0.4-0.2-0.6-0.2c-0.3-0.1-0.6-0.2-0.8-0.3l0,0l0,0c-0.3-0.1-0.5-0.2-0.8-0.2c-0.2-0.1-0.5-0.1-0.7-0.2h-0.1
		c0,0,0,0-0.1,0c-0.3-0.1-0.6-0.1-0.8-0.2c-0.2,0-0.3,0-0.5-0.1c-0.1,0-0.1,0-0.2,0s-0.1,0-0.2,0c-0.3,0-0.6-0.1-0.9-0.1
		c-0.1,0-0.2,0-0.2,0c-0.1,0-0.2,0-0.3,0c-0.1,0-0.3,0-0.4,0c-0.3,0-0.5,0-0.8,0h-0.1l0,0c-0.3,0-0.7,0-1,0c-0.1,0-0.1,0-0.2,0
		s-0.3,0-0.4,0c-0.2,0-0.3,0-0.5,0c-0.1,0-0.2,0-0.3,0.1c-0.2,0-0.4,0.1-0.5,0.1s-0.2,0-0.3,0.1c-0.1,0-0.2,0.1-0.3,0.1
		c-0.3,0.1-0.6,0.1-0.9,0.2c-0.1,0-0.2,0.1-0.3,0.1c-0.1,0-0.1,0.1-0.2,0.1c-0.2,0.1-0.5,0.2-0.7,0.3c-0.2,0.1-0.3,0.1-0.5,0.2
		s-0.5,0.2-0.7,0.4c-0.1,0.1-0.3,0.2-0.4,0.2c-0.2,0.2-0.5,0.3-0.7,0.5c-0.1,0.1-0.2,0.2-0.3,0.2c-0.3,0.3-0.6,0.6-0.9,0.9l-6.2,6.6
		c0.3-0.3,0.6-0.6,0.9-0.9c0.1-0.1,0.2-0.2,0.3-0.2c0.2-0.2,0.5-0.3,0.7-0.5c0.1-0.1,0.3-0.2,0.4-0.2c0.2-0.1,0.5-0.3,0.7-0.4
		s0.3-0.1,0.5-0.2s0.5-0.2,0.7-0.3c0.2-0.1,0.3-0.1,0.5-0.2c0.3-0.1,0.6-0.2,0.9-0.2c0.2,0,0.4-0.1,0.6-0.1s0.4-0.1,0.5-0.1
		c0.3,0,0.5-0.1,0.8-0.1c0.1,0,0.3,0,0.4,0c0.4,0,0.8,0,1.2,0c0,0,0,0,0.1,0c0.4,0,0.8,0,1.2,0.1c0.1,0,0.2,0,0.3,0
		c0.4,0,0.9,0.1,1.3,0.2c0.1,0,0.1,0,0.2,0c0.5,0.1,0.9,0.2,1.4,0.3h0.1c0.5,0.1,1,0.2,1.5,0.4l0,0c0.5,0.1,1,0.3,1.5,0.5h0.1
		c0.5,0.2,1,0.4,1.4,0.6c0.1,0,0.1,0.1,0.2,0.1c0.5,0.2,0.9,0.4,1.4,0.7c0.1,0,0.2,0.1,0.2,0.1c0.5,0.3,1,0.5,1.5,0.8l236.1,137.7
		c0.3,0.2,0.6,0.3,0.9,0.5c0.2,0.1,0.3,0.2,0.5,0.3s0.3,0.2,0.5,0.3s0.4,0.2,0.5,0.4c0.1,0.1,0.3,0.2,0.4,0.3
		c0.2,0.2,0.4,0.3,0.6,0.5c0.1,0.1,0.2,0.2,0.3,0.3c0.4,0.3,0.7,0.6,1,0.8c0.5,0.4,0.9,0.8,1.3,1.2c0.1,0.1,0.1,0.1,0.2,0.2
		c0.6,0.6,1.3,1.2,1.8,1.9l0,0c0.6,0.6,1.1,1.3,1.7,1.9c0.1,0.1,0.1,0.1,0.2,0.2c0.4,0.5,0.8,1,1.1,1.5c0.1,0.1,0.1,0.2,0.2,0.2
		c0.2,0.3,0.5,0.7,0.7,1.1c0.1,0.1,0.1,0.2,0.2,0.3c0.2,0.4,0.5,0.8,0.7,1.1c0,0.1,0.1,0.2,0.1,0.3c0.1,0.3,0.3,0.5,0.4,0.8
		c0.1,0.1,0.1,0.3,0.2,0.4c0.1,0.2,0.2,0.4,0.3,0.6c0.1,0.1,0.1,0.3,0.2,0.4c0.1,0.2,0.2,0.4,0.2,0.6c0.1,0.2,0.1,0.3,0.2,0.5
		c0.1,0.2,0.1,0.3,0.2,0.5c0.1,0.2,0.1,0.3,0.2,0.5c0.1,0.2,0.1,0.3,0.2,0.5c0.1,0.2,0.1,0.3,0.2,0.5c0,0.1,0.1,0.3,0.1,0.4
		c0,0.2,0.1,0.3,0.1,0.5c0,0.1,0.1,0.2,0.1,0.4s0.1,0.4,0.1,0.6c0,0.1,0,0.2,0.1,0.3c0.1,0.3,0.1,0.5,0.1,0.8v0.1
		c0,0.3,0.1,0.6,0.1,0.9c0,0.1,0,0.2,0,0.3c0,0.2,0,0.4,0,0.6c0,0.1,0,0.2,0,0.3c0,0.2,0,0.4,0,0.5s0,0.2,0,0.3c0,0.2,0,0.4,0,0.5
		s0,0.2,0,0.3c0,0.2,0,0.4-0.1,0.5c0,0.1,0,0.2,0,0.3c0,0.2-0.1,0.4-0.1,0.5s0,0.2-0.1,0.3c-0.1,0.3-0.1,0.5-0.2,0.8l-50.5,191.1
		c-0.1,0.4-0.2,0.8-0.4,1.2c0,0.1-0.1,0.2-0.1,0.3c-0.1,0.3-0.3,0.6-0.4,0.9c-0.1,0.1-0.1,0.2-0.2,0.3c-0.1,0.2-0.2,0.3-0.3,0.5
		s-0.3,0.4-0.4,0.6c-0.2,0.3-0.5,0.6-0.7,0.9l6.2-6.6c0.2-0.3,0.5-0.5,0.7-0.8c0,0,0-0.1,0.1-0.1c0.1-0.2,0.3-0.4,0.4-0.6
		c0.1-0.1,0.2-0.3,0.3-0.4c0,0,0-0.1,0.1-0.1c0.1-0.1,0.1-0.2,0.2-0.3c0.1-0.2,0.2-0.4,0.3-0.6c0-0.1,0.1-0.2,0.1-0.3
		c0-0.1,0.1-0.2,0.1-0.3c0-0.1,0.1-0.2,0.1-0.3c0.1-0.3,0.2-0.6,0.3-0.9l0,0l50.5-191.1c0.1-0.3,0.1-0.5,0.2-0.8l0,0
		c0-0.1,0-0.2,0-0.3c0-0.2,0.1-0.3,0.1-0.5c0,0,0,0,0-0.1s0-0.2,0-0.3s0-0.3,0-0.4v-0.1C652.8,252.9,652.8,252.8,652.8,252.7z"/>
</g>
<linearGradient id="SVGID_9_" gradientUnits="userSpaceOnUse" x1="334.9527" y1="419.67" x2="571.0453" y2="100.694" gradientTransform="matrix(0.9969 -7.880713e-02 -7.880713e-02 -0.9969 20.0001 629.4202)">
	<stop  offset="0" style="stop-color:#231815"/>
	<stop  offset="0.3378" style="stop-color:#251A17;stop-opacity:0.6622"/>
	<stop  offset="0.4771" style="stop-color:#2C211E;stop-opacity:0.5229"/>
	<stop  offset="0.5799" style="stop-color:#372D2A;stop-opacity:0.4201"/>
	<stop  offset="0.6647" style="stop-color:#483F3C;stop-opacity:0.3353"/>
	<stop  offset="0.7385" style="stop-color:#5D5553;stop-opacity:0.2615"/>
	<stop  offset="0.8045" style="stop-color:#78716F;stop-opacity:0.1955"/>
	<stop  offset="0.8648" style="stop-color:#979291;stop-opacity:0.1352"/>
	<stop  offset="0.9206" style="stop-color:#BCB9B8;stop-opacity:7.944739e-02"/>
	<stop  offset="0.9708" style="stop-color:#E4E3E2;stop-opacity:2.922642e-02"/>
	<stop  offset="1" style="stop-color:#FFFFFF;stop-opacity:0"/>
</linearGradient>
<path class="st91" d="M610.3,524.4L610.3,524.4L610.3,524.4c-0.1-0.3-0.1-0.6-0.2-0.8v-0.2l-45.5-154.5c-0.1-0.2-0.1-0.3-0.2-0.5
	c-0.1-0.2-0.2-0.4-0.2-0.7c0,0,0-0.1-0.1-0.2c0,0,0-0.1-0.1-0.1c0-0.1-0.1-0.2-0.1-0.4c-0.1-0.2-0.2-0.4-0.3-0.7
	c0-0.1-0.1-0.2-0.1-0.3c0,0,0-0.1-0.1-0.1c0-0.1-0.1-0.1-0.1-0.2c-0.1-0.2-0.2-0.4-0.3-0.7c-0.1-0.2-0.2-0.4-0.3-0.6c0,0,0,0,0-0.1
	c0,0,0,0,0-0.1c-0.1-0.2-0.2-0.5-0.4-0.7c-0.1-0.2-0.3-0.5-0.4-0.7c0,0,0-0.1-0.1-0.1c0,0,0-0.1-0.1-0.1c-0.1-0.2-0.2-0.3-0.3-0.5
	s-0.3-0.5-0.4-0.7c-0.1-0.1-0.1-0.2-0.2-0.4c0,0,0-0.1-0.1-0.1c0-0.1-0.1-0.1-0.1-0.2c-0.1-0.2-0.3-0.4-0.4-0.7
	c-0.1-0.2-0.2-0.4-0.4-0.5c-0.1-0.1-0.1-0.2-0.2-0.3l0,0c0-0.1-0.1-0.1-0.1-0.2c-0.1-0.2-0.2-0.3-0.3-0.5c-0.1-0.1-0.2-0.2-0.3-0.4
	c-0.1-0.1-0.2-0.2-0.3-0.4c-0.1-0.1-0.2-0.2-0.3-0.4c-0.1-0.1-0.2-0.2-0.3-0.3l-0.2-0.3l-0.2-0.3l-0.2-0.3l-0.2-0.3l-0.2-0.3l0,0
	l0,0l-0.1-0.2l-0.2-0.2l-0.2-0.2l-0.2-0.2l-0.2-0.2l-0.2-0.2l-0.2-0.2l-0.2-0.2l-0.2-0.2l-0.2-0.2l-0.2-0.2l-0.2-0.2
	c-0.1-0.1-0.2-0.2-0.3-0.3c-0.1-0.1-0.2-0.2-0.3-0.4l-0.1-0.1l0,0c-0.1-0.1-0.1-0.2-0.2-0.3c-0.1-0.1-0.2-0.2-0.3-0.4
	c-0.2-0.2-0.4-0.4-0.5-0.6c-0.2-0.2-0.4-0.5-0.6-0.7c-0.1-0.1-0.1-0.2-0.2-0.2c-0.1-0.1-0.2-0.2-0.3-0.4c-0.1-0.1-0.2-0.2-0.3-0.4
	c-0.1-0.1-0.2-0.2-0.3-0.4l-0.3-0.3l-0.2-0.2l-0.2-0.2l-0.2-0.2l-0.2-0.2l-0.2-0.2l-0.2-0.2l-0.2-0.2l-0.2-0.2l-0.2-0.2l-0.2-0.2
	l-0.2-0.2l-0.2-0.2l-0.2-0.2l-0.2-0.2l-0.1-0.1l0,0l-0.1-0.1l-0.3-0.2l-0.3-0.2c-0.1-0.1-0.2-0.2-0.4-0.3c-0.1-0.1-0.2-0.2-0.4-0.3
	c-0.1-0.1-0.2-0.2-0.3-0.2l0,0c0,0,0,0-0.1-0.1s-0.3-0.2-0.4-0.3c-0.2-0.1-0.3-0.3-0.5-0.4s-0.3-0.3-0.5-0.4l-0.2-0.1l-189-155.7
	c-0.1-0.1-0.3-0.2-0.4-0.4c-0.2-0.2-0.4-0.3-0.6-0.5s-0.4-0.3-0.7-0.5c-0.1-0.1-0.2-0.1-0.3-0.2c-0.1,0-0.1-0.1-0.2-0.1
	s-0.1-0.1-0.2-0.1c-0.2-0.2-0.4-0.3-0.6-0.5l0,0c0,0-0.1,0-0.1-0.1c-0.2-0.1-0.3-0.2-0.5-0.3c-0.1-0.1-0.2-0.1-0.3-0.2
	c-0.1,0-0.1-0.1-0.2-0.1l-0.1-0.1c-0.2-0.1-0.4-0.3-0.6-0.4c0,0,0,0-0.1,0l-0.1-0.1c-0.1-0.1-0.3-0.2-0.4-0.2s-0.2-0.1-0.3-0.1
	c-0.1,0-0.1-0.1-0.2-0.1c0,0-0.1,0-0.1-0.1c-0.2-0.1-0.4-0.2-0.6-0.3l0,0h-0.1c-0.2-0.1-0.3-0.1-0.4-0.2c-0.1,0-0.1,0-0.2-0.1
	c-0.1,0-0.1-0.1-0.2-0.1s-0.1-0.1-0.2-0.1s-0.2-0.1-0.3-0.1c-0.1,0-0.1-0.1-0.2-0.1h-0.1c-0.1,0-0.3-0.1-0.4-0.1s-0.1,0-0.2,0l0,0
	c-0.2,0-0.3-0.1-0.5-0.1h-0.1l0,0c0,0,0,0-0.1,0c-0.2,0-0.4,0-0.5,0l0,0h-0.1c-0.2,0-0.4,0-0.5,0h-0.1h-0.1c-0.1,0-0.2,0.1-0.3,0.1
	c0,0-0.1,0-0.1,0.1c-0.1,0.1-0.3,0.2-0.4,0.3l-8.7,7.5c0.1,0,0.1-0.1,0.2-0.1c-1,0.7-1.3,2.4-0.5,5l45.6,154
	c2.1,7.2,11,18.9,19.8,26.2l189,155.7c6,4.9,10.4,6.5,11.9,4.8c-0.1,0.1-0.1,0.1-0.2,0.2l8.7-7.5c0.1-0.1,0.2-0.2,0.3-0.3
	c0,0,0-0.1,0.1-0.1c0.1-0.1,0.1-0.2,0.2-0.3c0-0.1,0-0.1,0.1-0.2c0-0.1,0.1-0.2,0.1-0.3s0-0.2,0-0.2c0-0.1,0-0.2,0-0.3l0,0
	c0-0.2,0-0.5,0-0.8l0,0c0-0.1,0-0.2,0-0.3s0-0.3,0-0.4c0,0,0,0,0-0.1C610.4,524.8,610.4,524.6,610.3,524.4z M601.7,531.8
	L601.7,531.8v0.2c-0.1-0.4-0.2-0.7-0.3-1.1C601.5,531.3,601.6,531.5,601.7,531.8z M555.4,374.9L555.4,374.9
	c-0.2-0.4-0.4-0.9-0.6-1.3l0,0C555.1,374.1,555.3,374.5,555.4,374.9z M554.8,373.5L554.8,373.5c-0.2-0.5-0.5-1-0.7-1.5l0,0
	C554.4,372.5,554.6,373,554.8,373.5z M553.2,370.3L553.2,370.3c-0.3-0.5-0.6-1-0.9-1.4C552.6,369.3,552.9,369.8,553.2,370.3z
	 M552.2,368.6L552.2,368.6c-0.1-0.1-0.1-0.2-0.2-0.3C552,368.4,552.1,368.5,552.2,368.6z M546,360.2c-0.1-0.1-0.2-0.2-0.3-0.3l0,0
	C545.8,359.9,545.9,360,546,360.2z M545.4,359.5c-0.3-0.3-0.6-0.6-0.8-1l0,0C544.9,358.8,545.1,359.1,545.4,359.5z M544,357.9
	L544,357.9L544,357.9L544,357.9z M541.1,354.7L541.1,354.7c-0.5-0.5-1.1-1.1-1.6-1.6l0,0C540,353.7,540.5,354.2,541.1,354.7z
	 M542.6,356.3c-0.5-0.5-1-1-1.5-1.5C541.6,355.3,542.1,355.8,542.6,356.3z M539.4,353.2c-0.2-0.1-0.3-0.3-0.5-0.4
	C539.1,352.9,539.3,353,539.4,353.2L539.4,353.2z M344.9,192.9c0.1,0.1,0.1,0.1,0.2,0.2c0.1,0,0.1,0.1,0.2,0.2
	c-0.4-0.3-0.9-0.7-1.3-1l0,0C344.3,192.4,344.6,192.7,344.9,192.9z M343.2,191.7c0.2,0.2,0.5,0.3,0.7,0.5c-0.4-0.3-0.8-0.5-1.2-0.8
	c0.1,0.1,0.2,0.1,0.3,0.2C343,191.6,343.1,191.6,343.2,191.7z M342.1,191c0,0,0.1,0,0.1,0.1c0.1,0,0.2,0.1,0.2,0.1
	c-0.4-0.2-0.8-0.5-1.2-0.7c0,0,0.1,0,0.1,0.1C341.6,190.7,341.8,190.8,342.1,191z M340.5,190.1c0.2,0.1,0.4,0.2,0.6,0.3
	c-0.3-0.2-0.7-0.3-1-0.5c0.1,0,0.2,0.1,0.3,0.1C340.4,190.1,340.4,190.1,340.5,190.1z M339.6,189.7c0.1,0,0.1,0.1,0.2,0.1h0.1
	c-0.3-0.1-0.7-0.3-1-0.4c0.1,0,0.1,0,0.2,0.1C339.3,189.6,339.4,189.7,339.6,189.7z M338.4,189.3c0.1,0,0.2,0.1,0.4,0.1
	c-0.3-0.1-0.5-0.2-0.8-0.2c0.1,0,0.2,0,0.3,0.1C338.3,189.3,338.3,189.3,338.4,189.3z M337.6,189.2L337.6,189.2c0.1,0,0.2,0,0.2,0
	c-0.3,0-0.5-0.1-0.8-0.1l0,0C337.2,189.1,337.4,189.1,337.6,189.2z M336.8,189.1c-0.2,0-0.3,0-0.5,0.1c0,0,0,0,0.1,0
	C336.5,189.1,336.6,189.1,336.8,189.1z M335.7,189.4c0,0,0.1,0,0.1-0.1c0.1,0,0.2-0.1,0.2-0.1C335.9,189.3,335.8,189.3,335.7,189.4
	L335.7,189.4z M345.7,193.5c0.5,0.3,0.9,0.7,1.4,1.1C346.6,194.2,346.2,193.8,345.7,193.5z M537.8,351.6L537.8,351.6
	c-0.5-0.5-1.1-0.9-1.6-1.4C536.7,350.7,537.2,351.2,537.8,351.6z M555.5,375.1L555.5,375.1c0.2,0.5,0.3,0.9,0.5,1.3
	C555.8,376,555.7,375.5,555.5,375.1z M601.5,535.4C601.5,535.4,601.5,535.5,601.5,535.4c-0.1,0.1-0.1,0.1-0.1,0.2
	c0.1-0.1,0.2-0.3,0.3-0.5c0,0,0,0,0,0.1C601.6,535.2,601.5,535.3,601.5,535.4z M601.8,534.6c0,0.1-0.1,0.2-0.1,0.3
	c0.1-0.2,0.1-0.4,0.1-0.6l0,0C601.8,534.5,601.8,534.5,601.8,534.6z M601.8,534.1c0-0.2,0-0.4,0-0.7
	C601.9,533.7,601.9,533.9,601.8,534.1C601.9,534.1,601.9,534.1,601.8,534.1z M601.8,533c0,0.1,0,0.2,0,0.2c0-0.3-0.1-0.6-0.1-0.9
	c0,0.1,0,0.2,0,0.2C601.8,532.7,601.8,532.8,601.8,533z"/>
<g>
	
		<linearGradient id="SVGID_10_" gradientUnits="userSpaceOnUse" x1="404.1501" y1="399.8557" x2="266.5538" y2="327.4902" gradientTransform="matrix(0.9988 4.857088e-02 4.857088e-02 -0.9988 44.2371 644.9926)">
		<stop  offset="0" style="stop-color:#6D6CB0"/>
		<stop  offset="0.5146" style="stop-color:#7091CA"/>
		<stop  offset="0.999" style="stop-color:#70C4BF"/>
	</linearGradient>
	<path class="st92" d="M265.1,123.3c-0.9-7.4,4.4-6.5,11.9,2l161.6,184c7.5,8.6,14.4,21.6,15.3,29L474,498.2c0.9,7.4-4.4,6.5-11.9-2
		l-161.6-184c-7.5-8.6-14.4-21.6-15.3-29L265.1,123.3z"/>
	
		<linearGradient id="SVGID_11_" gradientUnits="userSpaceOnUse" x1="234.767" y1="599.1241" x2="409.5653" y2="158.816" gradientTransform="matrix(0.9988 4.857088e-02 4.857088e-02 -0.9988 44.2371 644.9926)">
		<stop  offset="0" style="stop-color:#243457"/>
		<stop  offset="0.5385" style="stop-color:#495A80"/>
		<stop  offset="0.6777" style="stop-color:#45567B"/>
		<stop  offset="0.8325" style="stop-color:#39496E"/>
		<stop  offset="0.9943" style="stop-color:#253558"/>
		<stop  offset="1" style="stop-color:#243457"/>
	</linearGradient>
	<path class="st93" d="M483.8,494.5c0-0.1,0-0.2,0-0.3c0-0.1,0-0.3,0-0.4c0,0,0,0,0-0.1c0-0.2,0-0.4,0-0.6V493l0,0
		c0-0.2,0-0.5-0.1-0.7v-0.2l-20.1-159.8c0-0.2,0-0.4-0.1-0.5c0-0.2-0.1-0.5-0.1-0.7c0-0.1,0-0.1,0-0.2c0,0,0-0.1,0-0.2
		s-0.1-0.3-0.1-0.4c-0.1-0.2-0.1-0.5-0.2-0.7c0-0.1-0.1-0.2-0.1-0.3c0-0.1,0-0.1,0-0.2s0-0.2-0.1-0.2c-0.1-0.2-0.1-0.5-0.2-0.7
		s-0.1-0.4-0.2-0.6c0,0,0,0,0-0.1c0,0,0,0,0-0.1c-0.1-0.2-0.2-0.5-0.3-0.7c-0.1-0.3-0.2-0.5-0.3-0.8v-0.1v-0.1
		c-0.1-0.2-0.1-0.4-0.2-0.5c-0.1-0.3-0.2-0.5-0.3-0.8c-0.1-0.1-0.1-0.3-0.2-0.4c0,0,0-0.1-0.1-0.1c0-0.1-0.1-0.1-0.1-0.2
		c-0.1-0.2-0.2-0.5-0.3-0.7c-0.1-0.2-0.2-0.4-0.3-0.6c0-0.1-0.1-0.2-0.1-0.3l0,0c0-0.1-0.1-0.1-0.1-0.2c-0.1-0.2-0.2-0.4-0.3-0.6
		c-0.1-0.1-0.1-0.3-0.2-0.4s-0.1-0.3-0.2-0.4s-0.1-0.3-0.2-0.4s-0.1-0.3-0.2-0.4l-0.1-0.3l-0.2-0.3l-0.2-0.3l-0.2-0.3l-0.2-0.3l0,0
		l0,0l-0.1-0.2l-0.1-0.2l-0.1-0.3l-0.1-0.2l-0.1-0.3l-0.1-0.3l-0.1-0.3l-0.1-0.3l-0.1-0.3l-0.2-0.3l-0.2-0.3l-0.2-0.3
		c-0.1-0.1-0.1-0.2-0.2-0.4c-0.1-0.1-0.2-0.3-0.2-0.4c0,0,0-0.1-0.1-0.1l0,0c-0.1-0.1-0.1-0.2-0.2-0.3c-0.1-0.1-0.2-0.3-0.3-0.4
		c-0.1-0.2-0.3-0.5-0.4-0.7c-0.2-0.3-0.3-0.5-0.5-0.8c-0.1-0.1-0.1-0.2-0.2-0.3c-0.1-0.1-0.2-0.3-0.3-0.4c-0.1-0.1-0.2-0.3-0.3-0.4
		c-0.1-0.1-0.2-0.3-0.3-0.4l-0.2-0.3l-0.2-0.3l-0.2-0.3l-0.2-0.2l-0.2-0.2l-0.2-0.2l-0.2-0.2l-0.2-0.2l-0.2-0.2l-0.2-0.2l-0.2-0.2
		l-0.2-0.2l-0.2-0.2l-0.2-0.3l-0.2-0.3l-0.1-0.1l0,0l-0.1-0.2l-0.2-0.3l-0.2-0.3c-0.1-0.1-0.2-0.2-0.3-0.4c-0.1-0.1-0.2-0.2-0.3-0.4
		c-0.1-0.1-0.2-0.2-0.2-0.3l0,0c0,0,0,0,0-0.1c-0.1-0.1-0.2-0.3-0.3-0.4c-0.1-0.2-0.3-0.3-0.4-0.5s-0.3-0.3-0.4-0.5l-0.1-0.2
		l-161.6-184c-0.1-0.1-0.2-0.3-0.4-0.4c-0.2-0.2-0.4-0.4-0.5-0.6c-0.2-0.2-0.4-0.4-0.6-0.6c-0.1-0.1-0.2-0.2-0.2-0.2
		c-0.1-0.1-0.1-0.1-0.2-0.2s-0.1-0.1-0.2-0.2c-0.2-0.2-0.4-0.4-0.6-0.6l0,0l-0.1-0.1c-0.1-0.1-0.3-0.3-0.4-0.4s-0.2-0.2-0.2-0.2
		c-0.1-0.1-0.1-0.1-0.2-0.1l-0.1-0.1c-0.2-0.2-0.4-0.3-0.5-0.5c0,0,0,0-0.1,0l-0.1-0.1c-0.1-0.1-0.2-0.2-0.4-0.3
		c-0.1-0.1-0.2-0.1-0.2-0.2c-0.1,0-0.1-0.1-0.2-0.1l-0.1-0.1c-0.2-0.1-0.3-0.3-0.5-0.4l0,0c0,0-0.1,0-0.1-0.1
		c-0.1-0.1-0.3-0.2-0.4-0.3c-0.1,0-0.1-0.1-0.1-0.1c-0.1,0-0.1-0.1-0.2-0.1s-0.1-0.1-0.2-0.1c-0.1-0.1-0.2-0.1-0.3-0.1
		c-0.1,0-0.1-0.1-0.2-0.1h-0.1c-0.1-0.1-0.2-0.1-0.4-0.2c-0.1,0-0.1-0.1-0.2-0.1l0,0c-0.1-0.1-0.3-0.1-0.4-0.2H278l0,0
		c0,0,0,0-0.1,0c-0.2-0.1-0.3-0.1-0.5-0.1l0,0h-0.1c-0.2,0-0.4,0-0.5,0h-0.1h-0.1c-0.1,0-0.2,0-0.3,0.1c-0.1,0-0.1,0-0.2,0
		c-0.2,0-0.3,0.1-0.4,0.2l-9.8,6c0.1-0.1,0.3-0.1,0.4-0.2c0,0,0.1,0,0.2,0s0.2,0,0.3-0.1c0.1,0,0.1,0,0.2,0c0.2,0,0.4,0,0.5,0h0.1
		c0.2,0,0.4,0.1,0.5,0.1c0,0,0,0,0.1,0c0,0,0.1,0,0.2,0.1s0.3,0.1,0.4,0.2c0,0,0.1,0,0.1,0.1c0.1,0.1,0.3,0.1,0.5,0.2
		c0.1,0,0.1,0.1,0.2,0.1c0.1,0.1,0.3,0.2,0.4,0.2s0.1,0.1,0.2,0.1c0.2,0.1,0.4,0.2,0.5,0.4c0,0,0.1,0,0.1,0.1
		c0.2,0.1,0.4,0.3,0.7,0.5c0.1,0,0.1,0.1,0.2,0.1c0.2,0.2,0.4,0.3,0.6,0.5l0.1,0.1c0.2,0.2,0.5,0.4,0.7,0.6c0.1,0,0.1,0.1,0.2,0.1
		c0.2,0.2,0.4,0.4,0.7,0.6l0.1,0.1c0.2,0.2,0.5,0.5,0.8,0.8c0.1,0.1,0.1,0.1,0.2,0.2c0.6,0.6,1.1,1.2,1.7,1.9l161.6,184
		c0.5,0.5,0.9,1.1,1.4,1.6c0,0,0,0,0,0.1c0.5,0.6,0.9,1.1,1.3,1.7l0,0c0.5,0.6,0.9,1.2,1.3,1.8l0,0c0.8,1.2,1.6,2.4,2.4,3.6
		c0.1,0.2,0.3,0.5,0.4,0.7c0.3,0.5,0.6,1,0.9,1.5l0,0c1.6,2.6,3,5.3,4.1,7.8l0,0c0.3,0.6,0.5,1.2,0.8,1.8v0.1
		c0.2,0.6,0.5,1.2,0.7,1.7v0.1c0.2,0.6,0.4,1.2,0.6,1.7c0,0,0,0,0,0.1c0.2,0.5,0.3,1.1,0.5,1.6c0,0.1,0,0.1,0,0.2
		c0.1,0.5,0.2,1,0.3,1.4v0.1c0.1,0.5,0.2,1,0.2,1.4L474,498.2c0,0.3,0.1,0.6,0.1,0.9v0.1c0,0.2,0,0.5,0,0.7c0,0.1,0,0.3,0,0.4
		s0,0.2,0,0.3c0,0.3-0.1,0.5-0.1,0.8c0,0.1-0.1,0.2-0.1,0.3c0,0.1,0,0.2-0.1,0.2c0,0.1-0.1,0.2-0.1,0.3c0,0.1-0.1,0.1-0.1,0.2
		c-0.1,0.1-0.1,0.2-0.2,0.2l-0.1,0.1c-0.1,0.1-0.2,0.2-0.3,0.3l9.8-6c0.1-0.1,0.2-0.2,0.3-0.3l0.1-0.1c0.1-0.1,0.1-0.2,0.2-0.2
		c0-0.1,0.1-0.1,0.1-0.2s0.1-0.2,0.1-0.3c0-0.1,0-0.1,0.1-0.2c0-0.1,0.1-0.2,0.1-0.3l0,0C483.8,495.1,483.8,494.8,483.8,494.5
		L483.8,494.5z"/>
</g>
<linearGradient id="SVGID_12_" gradientUnits="userSpaceOnUse" x1="198.8212" y1="397.2079" x2="414.8207" y2="59.8132" gradientTransform="matrix(1 0 0 -1 0 595.2756)">
	<stop  offset="0" style="stop-color:#231815"/>
	<stop  offset="0.3378" style="stop-color:#251A17;stop-opacity:0.6622"/>
	<stop  offset="0.4771" style="stop-color:#2C211E;stop-opacity:0.5229"/>
	<stop  offset="0.5799" style="stop-color:#372D2A;stop-opacity:0.4201"/>
	<stop  offset="0.6647" style="stop-color:#483F3C;stop-opacity:0.3353"/>
	<stop  offset="0.7385" style="stop-color:#5D5553;stop-opacity:0.2615"/>
	<stop  offset="0.8045" style="stop-color:#78716F;stop-opacity:0.1955"/>
	<stop  offset="0.8648" style="stop-color:#979291;stop-opacity:0.1352"/>
	<stop  offset="0.9206" style="stop-color:#BCB9B8;stop-opacity:7.944739e-02"/>
	<stop  offset="0.9708" style="stop-color:#E4E3E2;stop-opacity:2.922642e-02"/>
	<stop  offset="1" style="stop-color:#FFFFFF;stop-opacity:0"/>
</linearGradient>
<path class="st94" d="M459.1,553.7L459.1,553.7v-0.2c0-0.2,0-0.5,0-0.7s0-0.4-0.1-0.6l0,0l0,0c0-0.2-0.1-0.5-0.1-0.7
	s-0.1-0.5-0.1-0.7v-0.1l-39.4-208c0-0.2-0.1-0.4-0.1-0.6c-0.1-0.2-0.1-0.5-0.2-0.7c0-0.2-0.1-0.3-0.1-0.5v-0.1c0-0.1,0-0.1,0-0.2
	c-0.1-0.2-0.1-0.5-0.2-0.8s-0.2-0.5-0.3-0.8v-0.1v-0.1c-0.1-0.2-0.1-0.4-0.2-0.6c-0.1-0.3-0.2-0.5-0.3-0.8c-0.1-0.1-0.1-0.3-0.2-0.4
	c0-0.1,0-0.1-0.1-0.2c0-0.1-0.1-0.1-0.1-0.2c-0.1-0.2-0.2-0.5-0.3-0.7c-0.1-0.2-0.2-0.5-0.3-0.7c0-0.1-0.1-0.1-0.1-0.2v-0.1
	c-0.1-0.1-0.1-0.2-0.2-0.3c-0.1-0.2-0.2-0.4-0.3-0.6c-0.1-0.2-0.2-0.4-0.3-0.6c-0.1-0.1-0.1-0.3-0.2-0.4l0,0c0,0,0,0,0-0.1
	c-0.1-0.2-0.2-0.3-0.3-0.5c-0.1-0.2-0.2-0.3-0.3-0.5c-0.1-0.1-0.2-0.3-0.2-0.4c-0.1-0.1-0.2-0.3-0.2-0.4c0,0,0-0.1-0.1-0.1l0,0
	c0-0.1-0.1-0.2-0.1-0.2c-0.1-0.1-0.2-0.3-0.2-0.4c-0.1-0.1-0.2-0.3-0.3-0.4c-0.1-0.1-0.2-0.3-0.3-0.4c-0.1-0.1-0.2-0.3-0.3-0.4l0,0
	l0,0c-0.1-0.1-0.1-0.2-0.2-0.3c-0.1-0.2-0.3-0.4-0.4-0.6s-0.3-0.4-0.4-0.6c-0.1-0.1-0.1-0.1-0.2-0.2s-0.2-0.3-0.3-0.4
	c-0.2-0.2-0.3-0.4-0.5-0.6s-0.4-0.4-0.5-0.7l-0.1-0.1c0-0.1-0.1-0.1-0.1-0.2c-0.1-0.2-0.3-0.3-0.4-0.5c-0.2-0.2-0.4-0.4-0.5-0.6
	c-0.1-0.1-0.2-0.3-0.4-0.4l-0.1-0.1l0,0c-0.1-0.1-0.1-0.2-0.2-0.2c-0.1-0.1-0.2-0.3-0.4-0.4c-0.1-0.1-0.2-0.2-0.3-0.3
	c-0.1-0.1-0.2-0.2-0.3-0.3c-0.1-0.1-0.2-0.2-0.3-0.3l0,0l0,0c-0.1-0.1-0.2-0.2-0.3-0.3c-0.1-0.1-0.2-0.2-0.3-0.3
	c-0.1-0.1-0.2-0.2-0.3-0.3c-0.1-0.1-0.2-0.2-0.3-0.3c-0.1-0.1-0.2-0.2-0.3-0.2l0,0c0,0,0,0-0.1-0.1s-0.3-0.3-0.4-0.4
	s-0.3-0.3-0.4-0.4c-0.2-0.1-0.3-0.3-0.5-0.4c-0.1-0.1-0.1-0.1-0.2-0.1l-0.1-0.1c-0.1-0.1-0.2-0.2-0.3-0.2c-0.2-0.2-0.4-0.3-0.6-0.5
	s-0.4-0.3-0.6-0.5l-0.1-0.1l-0.1-0.1c-0.1-0.1-0.3-0.2-0.4-0.3c-0.2-0.2-0.5-0.3-0.7-0.5c-0.2-0.1-0.3-0.2-0.5-0.3l-0.1-0.1
	l-0.1-0.1c-0.2-0.1-0.5-0.3-0.7-0.4s-0.5-0.3-0.7-0.4l-0.2-0.1L199.5,204.3c-0.2-0.1-0.3-0.2-0.5-0.3c-0.1-0.1-0.2-0.1-0.3-0.1
	s-0.2-0.1-0.2-0.1c-0.1,0-0.1-0.1-0.2-0.1c-0.2-0.1-0.4-0.2-0.7-0.3l0,0l0,0c-0.2-0.1-0.4-0.2-0.7-0.3c0,0-0.1,0-0.1-0.1
	c-0.1,0-0.1-0.1-0.2-0.1c-0.1,0-0.2-0.1-0.3-0.1s-0.2-0.1-0.3-0.1s-0.2-0.1-0.2-0.1c-0.1,0-0.1,0-0.2-0.1c-0.1,0-0.3-0.1-0.4-0.1
	c-0.1,0-0.1,0-0.2-0.1c0,0,0,0-0.1,0c-0.2-0.1-0.5-0.1-0.7-0.2l0,0c-0.1,0-0.1,0-0.2,0c-0.2,0-0.3-0.1-0.5-0.1l0,0
	c-0.1,0-0.3,0-0.4,0c-0.1,0-0.2,0-0.3,0l0,0c-0.2,0-0.4,0-0.6,0h-0.1l0,0c-0.3,0-0.5,0-0.8,0h-0.1h-0.1c-0.3,0-0.6,0.1-0.9,0.1
	c0,0,0,0-0.1,0l0,0c-0.1,0-0.2,0.1-0.3,0.1s-0.2,0-0.3,0.1c-0.1,0-0.2,0.1-0.3,0.1s-0.2,0.1-0.2,0.1c-0.1,0.1-0.2,0.1-0.3,0.2
	c-0.1,0-0.1,0.1-0.2,0.1c-0.2,0.1-0.3,0.2-0.5,0.3l-8.3,6.6c0.2-0.1,0.3-0.2,0.5-0.3l0,0c-2.4,1.5-3.5,4.8-2.6,9.6L217,427
	c1.8,9.7,10.9,21.7,20.2,26.9L437,565.3c5.1,2.9,9.3,3,11.6,1c-0.1,0-0.1,0.1-0.1,0.1l8.3-6.6c0.3-0.2,0.5-0.5,0.7-0.7
	c0.1-0.1,0.1-0.2,0.2-0.3c0.1-0.2,0.3-0.4,0.4-0.6c0,0,0,0,0-0.1c0.1-0.1,0.1-0.3,0.2-0.5c0.1-0.1,0.1-0.3,0.2-0.4c0,0,0,0,0-0.1
	c0.1-0.3,0.2-0.5,0.3-0.8v-0.1c0-0.1,0-0.1,0-0.2c0-0.2,0.1-0.3,0.1-0.5s0-0.4,0.1-0.5v-0.1c0,0,0,0,0-0.1c0-0.2,0-0.5,0-0.7
	C459.1,554,459.1,553.9,459.1,553.7z M450.8,560.3L450.8,560.3c0-0.3,0-0.6-0.1-1C450.7,559.6,450.7,559.9,450.8,560.3
	C450.8,560.2,450.8,560.2,450.8,560.3z M410.6,347.2L410.6,347.2c-0.2-0.6-0.3-1.2-0.6-1.8l0,0C410.3,346,410.5,346.6,410.6,347.2z
	 M410,345.3L410,345.3c-0.2-0.6-0.4-1.2-0.7-1.8l0,0C409.6,344.1,409.8,344.7,410,345.3z M409.3,343.4L409.3,343.4
	c-0.2-0.6-0.5-1.2-0.8-1.8C408.8,342.2,409.1,342.8,409.3,343.4z M408,340.5c-0.2-0.3-0.3-0.6-0.5-0.9l0,0
	C407.6,339.9,407.8,340.2,408,340.5z M405.7,336.7c-0.2-0.3-0.4-0.6-0.6-0.9l0,0C405.3,336.1,405.5,336.4,405.7,336.7z M405.1,335.7
	c0-0.1-0.1-0.1-0.1-0.2C405,335.6,405.1,335.7,405.1,335.7L405.1,335.7z M188.4,209.5c0.1,0,0.1,0.1,0.2,0.1
	c0.3,0.1,0.5,0.2,0.8,0.3l0,0c0,0,0,0,0.1,0c-0.5-0.2-1-0.4-1.5-0.6C188.1,209.4,188.2,209.5,188.4,209.5z M187,209
	c0.2,0.1,0.4,0.1,0.6,0.2c0.1,0,0.1,0.1,0.2,0.1l0,0c-0.5-0.2-0.9-0.3-1.3-0.4c0.1,0,0.2,0,0.3,0.1C186.8,209,186.9,209,187,209z
	 M185.9,208.8C186,208.8,186,208.8,185.9,208.8c0.2,0,0.2,0.1,0.3,0.1c-0.4-0.1-0.8-0.2-1.2-0.2c0.1,0,0.2,0,0.3,0
	C185.5,208.7,185.7,208.7,185.9,208.8z M183.9,208.5c0.2,0,0.4,0,0.6,0c0.1,0,0.2,0,0.3,0c-0.4,0-0.8-0.1-1.1-0.1h0.1
	C183.8,208.5,183.9,208.5,183.9,208.5z M183,208.6c0.1,0,0.3,0,0.4,0c-0.3,0-0.5,0-0.8,0.1c0.1,0,0.1,0,0.2,0
	C182.9,208.6,182.9,208.6,183,208.6z M181.5,208.8c0.1,0,0.2-0.1,0.3-0.1h0.1c0.1,0,0.1,0,0.2,0c-0.3,0.1-0.6,0.1-0.9,0.2l0,0
	C181.4,208.9,181.4,208.9,181.5,208.8z M180.4,209.3c0.1-0.1,0.2-0.1,0.3-0.2c0.1,0,0.2-0.1,0.2-0.1c0.1,0,0.2-0.1,0.3-0.1
	C180.9,209,180.6,209.2,180.4,209.3L180.4,209.3z M191.2,210.9c-0.5-0.3-1.1-0.6-1.6-0.8c0.2,0.1,0.4,0.2,0.6,0.3
	c0.1,0,0.1,0.1,0.2,0.1C190.7,210.6,190.9,210.7,191.2,210.9l143.3,79.8L191.2,210.9z M411.1,349.1c-0.1-0.6-0.2-1.2-0.4-1.8l0,0
	C410.8,347.9,411,348.5,411.1,349.1l39.4,208c0.1,0.6,0.2,1.1,0.2,1.6c0,0,0,0,0,0.1l0,0c-0.1-0.5-0.1-1.1-0.2-1.7L411.1,349.1z
	 M449,565.9c0.1-0.1,0.2-0.3,0.3-0.4c0,0.1-0.1,0.1-0.1,0.2C449.1,565.7,449.1,565.8,449,565.9z M449.7,565c0.1-0.1,0.2-0.3,0.3-0.5
	c0,0.1-0.1,0.2-0.1,0.2C449.8,564.9,449.7,564.9,449.7,565z M450.2,564.1c0.1-0.2,0.2-0.4,0.2-0.6c0,0.1-0.1,0.2-0.1,0.3
	C450.2,563.9,450.2,564,450.2,564.1z M450.6,562.9C450.6,563,450.6,563,450.6,562.9c0.1-0.1,0.1-0.4,0.1-0.6c0,0.1,0,0.3-0.1,0.4
	C450.6,562.7,450.6,562.8,450.6,562.9z M450.8,561.6C450.8,561.7,450.8,561.7,450.8,561.6c0-0.2,0-0.5,0-0.8c0,0.2,0,0.4,0,0.6
	C450.8,561.6,450.8,561.6,450.8,561.6z"/>
<g>
	
		<linearGradient id="SVGID_13_" gradientUnits="userSpaceOnUse" x1="324.1003" y1="380.7923" x2="142.677" y2="240.648" gradientTransform="matrix(0.9988 4.857088e-02 4.857088e-02 -0.9988 44.2371 644.9926)">
		<stop  offset="0" style="stop-color:#6D6CB0"/>
		<stop  offset="0.5146" style="stop-color:#7091CA"/>
		<stop  offset="0.999" style="stop-color:#70C4BF"/>
	</linearGradient>
	<path class="st95" d="M128.3,196.4c-1.8-9.7,4.2-13.4,13.5-8.2l199.7,111.2c9.3,5.2,18.3,17.2,20.2,26.9l39.4,208
		c1.8,9.7-4.2,13.3-13.5,8.2L187.9,431.4c-9.3-5.2-18.3-17.2-20.2-26.9L128.3,196.4z"/>
	
		<linearGradient id="SVGID_14_" gradientUnits="userSpaceOnUse" x1="443.3676" y1="63.8492" x2="253.835" y2="284.3449" gradientTransform="matrix(0.9561 -0.2929 -0.2929 -0.9561 109.6037 697.8348)">
		<stop  offset="0" style="stop-color:#243457"/>
		<stop  offset="0.5385" style="stop-color:#495A80"/>
		<stop  offset="0.6777" style="stop-color:#45567B"/>
		<stop  offset="0.8325" style="stop-color:#39496E"/>
		<stop  offset="0.9943" style="stop-color:#253558"/>
		<stop  offset="1" style="stop-color:#243457"/>
	</linearGradient>
	<path class="st96" d="M409.7,531.5c0-0.2,0-0.3,0-0.5v-0.1v-0.1c0-0.2,0-0.5,0-0.7s0-0.4-0.1-0.6l0,0l0,0c0-0.2-0.1-0.5-0.1-0.7
		s-0.1-0.5-0.1-0.7V528L370,320c0-0.2-0.1-0.4-0.1-0.6c-0.1-0.2-0.1-0.5-0.2-0.7c0-0.2-0.1-0.3-0.1-0.5v-0.1c0-0.1,0-0.1,0-0.2
		c-0.1-0.2-0.1-0.5-0.2-0.8s-0.2-0.5-0.3-0.8v-0.1v-0.1c-0.1-0.2-0.1-0.4-0.2-0.6c-0.1-0.3-0.2-0.5-0.3-0.8
		c-0.1-0.1-0.1-0.3-0.2-0.4c0-0.1,0-0.1-0.1-0.2c0-0.1-0.1-0.1-0.1-0.2c-0.1-0.2-0.2-0.5-0.3-0.7c-0.1-0.2-0.2-0.5-0.3-0.7
		c0-0.1-0.1-0.1-0.1-0.2v-0.1c-0.1-0.1-0.1-0.2-0.2-0.3c-0.1-0.2-0.2-0.4-0.3-0.6c-0.1-0.2-0.2-0.4-0.3-0.6
		c-0.1-0.1-0.1-0.3-0.2-0.4l0,0c0,0,0,0,0-0.1c-0.1-0.2-0.2-0.3-0.3-0.5c-0.1-0.2-0.2-0.3-0.3-0.5c-0.1-0.1-0.2-0.3-0.2-0.4
		c-0.1-0.1-0.2-0.3-0.2-0.4c0,0,0-0.1-0.1-0.1l0,0c0-0.1-0.1-0.2-0.1-0.2c-0.1-0.1-0.2-0.3-0.2-0.4c-0.1-0.1-0.2-0.3-0.3-0.4
		c-0.1-0.1-0.2-0.3-0.3-0.4c-0.1-0.1-0.2-0.3-0.3-0.4l0,0l0,0c-0.1-0.1-0.1-0.2-0.2-0.3c-0.1-0.2-0.3-0.4-0.4-0.6s-0.3-0.4-0.4-0.6
		c-0.1-0.1-0.1-0.1-0.2-0.2s-0.2-0.3-0.3-0.4c-0.2-0.2-0.3-0.4-0.5-0.6s-0.4-0.4-0.5-0.7l-0.1-0.1c0-0.1-0.1-0.1-0.1-0.2
		c-0.1-0.2-0.3-0.3-0.4-0.5c-0.2-0.2-0.4-0.4-0.5-0.6c-0.1-0.1-0.2-0.3-0.4-0.4l-0.1-0.1l0,0c-0.1-0.1-0.1-0.2-0.2-0.2
		c-0.1-0.1-0.2-0.3-0.4-0.4c-0.1-0.1-0.2-0.2-0.3-0.3c-0.1-0.1-0.2-0.2-0.3-0.3c-0.1-0.1-0.2-0.2-0.3-0.3l0,0l0,0
		c-0.1-0.1-0.2-0.2-0.3-0.3c-0.1-0.1-0.2-0.2-0.3-0.3c-0.1-0.1-0.2-0.2-0.3-0.3c-0.1-0.1-0.2-0.2-0.3-0.3c-0.1-0.1-0.2-0.2-0.3-0.2
		l0,0c0,0,0,0-0.1-0.1s-0.3-0.3-0.4-0.4s-0.3-0.3-0.4-0.4c-0.2-0.1-0.3-0.3-0.5-0.4c-0.1-0.1-0.1-0.1-0.2-0.1l-0.1-0.1
		c-0.1-0.1-0.2-0.2-0.3-0.2c-0.2-0.2-0.4-0.3-0.6-0.5s-0.4-0.3-0.6-0.5l-0.1-0.1l-0.1-0.1c-0.1-0.1-0.3-0.2-0.4-0.3
		c-0.2-0.2-0.5-0.3-0.7-0.5c-0.2-0.1-0.3-0.2-0.5-0.3l-0.1-0.1l-0.1-0.1c-0.2-0.1-0.5-0.3-0.7-0.4s-0.5-0.3-0.7-0.4l-0.2-0.1
		L150.1,181.7c-0.2-0.1-0.3-0.2-0.5-0.3c-0.1-0.1-0.2-0.1-0.3-0.1s-0.2-0.1-0.2-0.1c-0.1,0-0.1-0.1-0.2-0.1
		c-0.2-0.1-0.4-0.2-0.7-0.3l0,0l0,0c-0.2-0.1-0.4-0.2-0.7-0.3c0,0-0.1,0-0.1-0.1c-0.1,0-0.1-0.1-0.2-0.1c-0.1,0-0.2-0.1-0.3-0.1
		s-0.2-0.1-0.3-0.1s-0.2-0.1-0.2-0.1c-0.1,0-0.1,0-0.2-0.1c-0.1,0-0.3-0.1-0.4-0.1c-0.1,0-0.1,0-0.2-0.1c0,0,0,0-0.1,0
		c-0.2-0.1-0.5-0.1-0.7-0.2l0,0c-0.1,0-0.1,0-0.2,0c-0.2,0-0.3-0.1-0.5-0.1l0,0c-0.1,0-0.3,0-0.4,0c-0.1,0-0.2,0-0.3,0l0,0
		c-0.2,0-0.4,0-0.6,0h-0.1l0,0c-0.3,0-0.5,0-0.8,0h-0.1h-0.1c-0.3,0-0.6,0.1-0.9,0.1c0,0,0,0-0.1,0l0,0c-0.1,0-0.2,0.1-0.3,0.1
		s-0.2,0-0.3,0.1c-0.1,0-0.2,0.1-0.3,0.1s-0.2,0.1-0.2,0.1c-0.1,0.1-0.2,0.1-0.3,0.2c-0.1,0-0.1,0.1-0.2,0.1
		c-0.2,0.1-0.3,0.2-0.5,0.3l-8.3,6.6c0.2-0.1,0.3-0.2,0.5-0.3c0.1,0,0.1-0.1,0.2-0.1c0.1-0.1,0.2-0.1,0.3-0.2c0.1,0,0.2-0.1,0.2-0.1
		c0.1,0,0.2-0.1,0.3-0.1s0.2,0,0.2-0.1c0.1,0,0.2-0.1,0.3-0.1h0.1c0.3-0.1,0.6-0.1,0.9-0.1c0.1,0,0.1,0,0.2,0c0.3,0,0.5,0,0.8,0
		c0.1,0,0.1,0,0.2,0c0.2,0,0.4,0,0.6,0c0.1,0,0.3,0,0.4,0c0.1,0,0.2,0,0.3,0c0.2,0,0.4,0.1,0.7,0.1h0.1c0.2,0.1,0.5,0.1,0.7,0.2
		c0.1,0,0.1,0,0.2,0.1c0.2,0.1,0.4,0.1,0.6,0.2c0.1,0,0.1,0.1,0.2,0.1c0.2,0.1,0.4,0.1,0.6,0.2c0.1,0,0.1,0.1,0.2,0.1
		c0.3,0.1,0.5,0.2,0.8,0.3l0,0c0.3,0.1,0.5,0.2,0.8,0.4c0.1,0,0.1,0.1,0.2,0.1c0.3,0.1,0.5,0.3,0.8,0.4l199.7,111.2
		c0.6,0.3,1.1,0.7,1.7,1l0.1,0.1c0.5,0.3,1.1,0.7,1.6,1.1c0,0,0.1,0,0.1,0.1c0.5,0.4,1.1,0.8,1.6,1.3l0.1,0.1
		c0.5,0.4,1.1,0.9,1.6,1.4l0,0c0.5,0.5,1.1,1,1.6,1.5l0,0c0.5,0.5,1,1.1,1.5,1.6l0,0c0.5,0.5,0.9,1.1,1.4,1.6l0.1,0.1
		c0.4,0.5,0.8,1,1.1,1.5c0.1,0.1,0.2,0.3,0.3,0.4c0.4,0.6,0.8,1.1,1.2,1.7l0,0c0.4,0.6,0.8,1.2,1.2,1.9l0,0c0.4,0.6,0.8,1.3,1.1,1.9
		l0,0c0.3,0.6,0.7,1.2,1,1.9v0.1c0.3,0.6,0.6,1.2,0.8,1.8c0,0,0,0.1,0.1,0.1c0.2,0.6,0.5,1.2,0.7,1.8v0.1c0.2,0.6,0.4,1.2,0.6,1.8
		v0.1c0.2,0.6,0.3,1.2,0.4,1.8l39.4,208c0.1,0.6,0.2,1.1,0.2,1.6c0,0,0,0,0,0.1c0,0.5,0.1,0.9,0.1,1.4v0.1c0,0.4,0,0.8-0.1,1.2v0.1
		c0,0.4-0.1,0.7-0.2,1c0,0.1,0,0.1,0,0.2c-0.1,0.3-0.2,0.7-0.3,1c-0.1,0.1-0.1,0.3-0.2,0.4c-0.1,0.2-0.2,0.4-0.3,0.5
		c-0.1,0.2-0.3,0.4-0.4,0.6c-0.1,0.1-0.1,0.2-0.2,0.3c-0.2,0.3-0.5,0.5-0.7,0.7l8.3-6.6c0.3-0.2,0.5-0.5,0.7-0.7
		c0.1-0.1,0.1-0.2,0.2-0.3c0.1-0.2,0.3-0.4,0.4-0.6c0,0,0,0,0-0.1c0.1-0.1,0.1-0.3,0.2-0.5c0.1-0.1,0.1-0.3,0.2-0.4c0,0,0,0,0-0.1
		c0.1-0.3,0.2-0.5,0.3-0.8v-0.1c0-0.1,0-0.1,0-0.2c0-0.2,0.1-0.3,0.1-0.5s0-0.4,0.1-0.5v-0.1c0,0,0,0,0-0.1
		C409.7,532,409.7,531.8,409.7,531.5z"/>
</g>
<linearGradient id="SVGID_15_" gradientUnits="userSpaceOnUse" x1="262.9757" y1="266.7081" x2="211.5722" y2="60.2909" gradientTransform="matrix(0.9803 -0.1976 -0.1976 -0.9803 27.2375 640.0544)">
	<stop  offset="0" style="stop-color:#231815"/>
	<stop  offset="0.3378" style="stop-color:#251A17;stop-opacity:0.6622"/>
	<stop  offset="0.4771" style="stop-color:#2C211E;stop-opacity:0.5229"/>
	<stop  offset="0.5799" style="stop-color:#372D2A;stop-opacity:0.4201"/>
	<stop  offset="0.6647" style="stop-color:#483F3C;stop-opacity:0.3353"/>
	<stop  offset="0.7385" style="stop-color:#5D5553;stop-opacity:0.2615"/>
	<stop  offset="0.8045" style="stop-color:#78716F;stop-opacity:0.1955"/>
	<stop  offset="0.8648" style="stop-color:#979291;stop-opacity:0.1352"/>
	<stop  offset="0.9206" style="stop-color:#BCB9B8;stop-opacity:7.944739e-02"/>
	<stop  offset="0.9708" style="stop-color:#E4E3E2;stop-opacity:2.922642e-02"/>
	<stop  offset="1" style="stop-color:#FFFFFF;stop-opacity:0"/>
</linearGradient>
<path class="st97" d="M401.2,534.2L401.2,534.2c-0.1-0.3-0.1-0.4-0.2-0.6c0-0.1-0.1-0.2-0.1-0.2c0-0.1-0.1-0.1-0.1-0.2
	c0,0,0-0.1-0.1-0.1c-0.1-0.2-0.2-0.4-0.3-0.5l0,0c0,0,0-0.1-0.1-0.1c-0.1-0.1-0.2-0.3-0.2-0.4c-0.1-0.1-0.1-0.2-0.2-0.3
	c0-0.1-0.1-0.1-0.1-0.2c0,0,0-0.1-0.1-0.1c-0.1-0.2-0.2-0.4-0.4-0.5c0,0,0-0.1-0.1-0.1l-0.1-0.1c-0.1-0.1-0.2-0.2-0.2-0.3
	c-0.1-0.1-0.2-0.3-0.3-0.4l-0.1-0.1c0,0,0,0,0-0.1c-0.1-0.2-0.3-0.4-0.5-0.5c0-0.1-0.1-0.1-0.1-0.2c0-0.1-0.1-0.1-0.1-0.2
	c-0.1-0.1-0.1-0.1-0.2-0.2c-0.2-0.2-0.3-0.4-0.5-0.5l0,0l0,0c-0.2-0.2-0.3-0.3-0.5-0.5c-0.1-0.1-0.2-0.2-0.3-0.3l-159.6-158
	l-0.2-0.2c-0.2-0.2-0.3-0.3-0.5-0.5s-0.3-0.3-0.5-0.5c-0.1-0.1-0.2-0.2-0.3-0.2l0,0l-0.1-0.1c-0.1-0.1-0.3-0.2-0.4-0.4
	c-0.1-0.1-0.3-0.2-0.4-0.3c-0.1-0.1-0.2-0.2-0.4-0.3c-0.1-0.1-0.1-0.1-0.2-0.2l0,0l-0.1-0.1c-0.1-0.1-0.2-0.2-0.4-0.3
	c-0.1-0.1-0.2-0.2-0.3-0.3c-0.1-0.1-0.2-0.2-0.3-0.3c-0.1-0.1-0.2-0.2-0.3-0.3c0,0,0,0-0.1-0.1l0,0c-0.1-0.1-0.2-0.1-0.3-0.2
	s-0.3-0.2-0.4-0.3c-0.1-0.1-0.3-0.2-0.4-0.3c-0.1-0.1-0.3-0.2-0.4-0.3h-0.1c0,0-0.1,0-0.1-0.1c-0.2-0.1-0.4-0.3-0.7-0.4
	c-0.1-0.1-0.3-0.2-0.5-0.3c-0.3-0.2-0.7-0.4-1-0.6c-0.1-0.1-0.3-0.2-0.4-0.2c-0.2-0.1-0.4-0.2-0.6-0.3l-0.1-0.1h-0.1
	c-0.1-0.1-0.2-0.1-0.3-0.2c-0.2-0.1-0.3-0.2-0.5-0.2c-0.1-0.1-0.3-0.1-0.4-0.2c-0.1-0.1-0.3-0.1-0.4-0.2c0,0,0,0-0.1,0l0,0
	c-0.1,0-0.2-0.1-0.3-0.1c-0.1-0.1-0.3-0.1-0.4-0.2c-0.1-0.1-0.3-0.1-0.4-0.2c-0.1-0.1-0.3-0.1-0.4-0.2c-0.1,0-0.1-0.1-0.2-0.1
	c0,0,0,0-0.1,0s-0.1-0.1-0.2-0.1c-0.2-0.1-0.3-0.1-0.5-0.2s-0.3-0.1-0.5-0.2s-0.4-0.1-0.5-0.2l0,0c0,0,0,0-0.1,0
	c-0.2-0.1-0.3-0.1-0.5-0.2s-0.4-0.1-0.6-0.2c-0.2-0.1-0.4-0.1-0.6-0.2c0,0,0,0-0.1,0l0,0c-0.2-0.1-0.5-0.1-0.7-0.2s-0.5-0.1-0.7-0.2
	c-0.1,0-0.1,0-0.2,0h-0.1c-0.1,0-0.3-0.1-0.4-0.1c-0.2,0-0.5-0.1-0.7-0.1c-0.1,0-0.3,0-0.4-0.1h-0.1h-0.1c-0.2,0-0.4-0.1-0.7-0.1
	c-0.2,0-0.4,0-0.7-0.1h-0.1H215c-0.2,0-0.3,0-0.5,0s-0.4,0-0.6,0c-0.1,0-0.2,0-0.3,0h-0.1c-0.1,0-0.1,0-0.2,0c-0.2,0-0.4,0-0.6,0
	c-0.2,0-0.4,0-0.6,0l0,0l0,0c-0.2,0-0.4,0-0.6,0.1c-0.2,0-0.4,0.1-0.6,0.1h-0.2L58.9,391.9c-0.1,0-0.3,0.1-0.4,0.1
	c-0.1,0-0.1,0-0.2,0.1c-0.1,0-0.2,0.1-0.3,0.1s-0.1,0-0.2,0.1c-0.1,0-0.1,0.1-0.2,0.1c-0.1,0-0.2,0.1-0.3,0.1c0,0-0.1,0-0.1,0.1
	c-0.1,0-0.1,0.1-0.2,0.1c-0.1,0.1-0.2,0.1-0.4,0.2c0,0-0.1,0-0.1,0.1c0,0-0.1,0-0.1,0.1c-0.2,0.1-0.4,0.3-0.6,0.4c0,0,0,0-0.1,0l0,0
	c-0.2,0.2-0.4,0.4-0.6,0.6l-0.1,0.1c-0.2,0.2-0.3,0.4-0.5,0.7l-4.1,6.9l0,0c-1,1.7-1,4,0.1,6.5c0.9,2.1,2.6,4.5,4.9,6.8l159.6,158
	c7.4,7.4,19.2,12.1,26.2,10.5l151.5-33.2c2.4-0.5,3.9-1.7,4.6-3.2c-0.1,0.2-0.1,0.3-0.2,0.4l4.1-6.9c0.2-0.3,0.3-0.6,0.4-0.9
	c0-0.1,0.1-0.2,0.1-0.2c0.1-0.3,0.2-0.6,0.2-1l0,0l0,0c0-0.3,0-0.6,0-0.9c0,0,0,0,0-0.1s0-0.3,0-0.4c0-0.1,0-0.2,0-0.3l0,0
	c0-0.2-0.1-0.5-0.1-0.7c0,0,0,0,0-0.1s0-0.1,0-0.2c0-0.1-0.1-0.3-0.1-0.4c0-0.1-0.1-0.2-0.1-0.2c0-0.1,0-0.1-0.1-0.2
	c0-0.1,0-0.1-0.1-0.2C401.4,534.6,401.3,534.4,401.2,534.2z M51,400.9C51.1,400.9,51.1,400.8,51,400.9c0.1-0.1,0.1-0.1,0.1-0.1
	S51.1,400.9,51,400.9z M51.6,400.3C51.6,400.3,51.7,400.3,51.6,400.3c0.1-0.1,0.2-0.1,0.2-0.2l0,0C51.7,400.2,51.7,400.3,51.6,400.3
	z M52.4,399.8L52.4,399.8L52.4,399.8L52.4,399.8z M52.8,399.6c0.1,0,0.1-0.1,0.2-0.1c0,0,0,0,0.1,0C53,399.5,52.9,399.5,52.8,399.6z
	 M53.4,399.3c0.1,0,0.1-0.1,0.2-0.1c0.1,0,0.2-0.1,0.2-0.1C53.7,399.2,53.5,399.2,53.4,399.3z M54.9,398.8c-0.3,0.1-0.5,0.1-0.7,0.2
	h0.1C54.5,398.9,54.7,398.9,54.9,398.8l101-22.1L54.9,398.8z M207.4,365.5c0.1,0,0.2,0,0.3,0l0,0
	C207.6,365.4,207.5,365.5,207.4,365.5z M208.3,365.4c0.3,0,0.5,0,0.8,0l0,0C208.9,365.4,208.6,365.4,208.3,365.4z M209.3,365.4
	L209.3,365.4c0.5,0,0.9,0,1.4,0.1C210.2,365.4,209.7,365.4,209.3,365.4z M210.8,365.4L210.8,365.4c0.5,0,1,0.1,1.5,0.2l0,0
	C211.8,365.5,211.3,365.5,210.8,365.4z M213.4,365.8c0.2,0,0.4,0.1,0.6,0.1l0,0C213.8,365.9,213.6,365.8,213.4,365.8z M214.1,365.9
	L214.1,365.9c0.5,0.1,1.1,0.3,1.6,0.4l0,0C215.2,366.2,214.7,366.1,214.1,365.9z M215.8,366.4L215.8,366.4c0.6,0.2,1.1,0.3,1.7,0.5
	l0,0C217,366.7,216.4,366.5,215.8,366.4z M217.6,366.9L217.6,366.9c0.4,0.1,0.8,0.3,1.2,0.4C218.4,367.2,218,367.1,217.6,366.9z
	 M220.5,368.1c0.2,0.1,0.4,0.2,0.6,0.3l0,0C220.9,368.2,220.7,368.2,220.5,368.1z M221.1,368.3L221.1,368.3c0.2,0.1,0.5,0.2,0.7,0.3
	C221.6,368.6,221.3,368.4,221.1,368.3z M229.6,373.6L229.6,373.6c0.3,0.2,0.5,0.5,0.8,0.7C230.2,374,229.9,373.8,229.6,373.6z
	 M232.6,376.2c-0.2-0.2-0.5-0.5-0.7-0.7C232.1,375.7,232.3,375.9,232.6,376.2l138.1,136.7L232.6,376.2z M398,545.4L398,545.4
	C398,545.5,397.9,545.5,398,545.4c0,0,0-0.1,0-0.2C398,545.3,398,545.4,398,545.4z M398,544.5L398,544.5L398,544.5L398,544.5z
	 M397.9,543.7c0,0.1,0,0.2,0,0.2C397.9,543.8,397.9,543.7,397.9,543.7L397.9,543.7z M397.8,542.9c0,0.1,0,0.1,0,0.2
	c0-0.1,0-0.2-0.1-0.3C397.8,542.9,397.8,542.9,397.8,542.9z M397.5,542.1L397.5,542.1C397.5,542.1,397.5,542.1,397.5,542.1
	C397.5,542,397.5,542.1,397.5,542.1z"/>
<g>
	
		<linearGradient id="SVGID_16_" gradientUnits="userSpaceOnUse" x1="263.084" y1="328.3123" x2="39.5804" y2="128.736" gradientTransform="matrix(0.9953 -9.644353e-02 -9.644353e-02 -0.9953 78.2284 660.4376)">
		<stop  offset="0" style="stop-color:#6D6CB0"/>
		<stop  offset="0.5146" style="stop-color:#7091CA"/>
		<stop  offset="0.999" style="stop-color:#70C4BF"/>
	</linearGradient>
	<path class="st98" d="M5.2,334.3c-0.7-5.5,1.9-9,7.3-8.7l172.2,9.7c8,0.5,19.2,9,25,19.1l123.8,217c1.8,3.2,2.9,6.2,3.2,8.8
		c0.7,5.5-1.9,9-7.3,8.7l-172.2-9.7c-8-0.5-19.2-9-25-19.1L8.5,343.1C6.7,339.9,5.6,336.9,5.2,334.3z"/>
	
		<linearGradient id="SVGID_17_" gradientUnits="userSpaceOnUse" x1="125.2524" y1="326.8836" x2="211.8584" y2="-121.1651" gradientTransform="matrix(0.9037 -0.4282 -0.4282 -0.9037 150.5853 703.2982)">
		<stop  offset="0" style="stop-color:#243457"/>
		<stop  offset="0.5385" style="stop-color:#495A80"/>
		<stop  offset="0.6777" style="stop-color:#45567B"/>
		<stop  offset="0.8325" style="stop-color:#39496E"/>
		<stop  offset="0.9943" style="stop-color:#253558"/>
		<stop  offset="1" style="stop-color:#243457"/>
	</linearGradient>
	<path class="st99" d="M343.4,575.5c0-0.1,0-0.2,0-0.3s0-0.2,0-0.2c0-0.1,0-0.1,0-0.2c0-0.2,0-0.5-0.1-0.7V574
		c0-0.2-0.1-0.4-0.1-0.6c0-0.1,0-0.2-0.1-0.3c0-0.1,0-0.1,0-0.2c0-0.1,0-0.1,0-0.2c0-0.2-0.1-0.4-0.2-0.7c0,0,0,0,0-0.1v-0.1
		c0-0.2-0.1-0.3-0.1-0.5c0-0.1-0.1-0.2-0.1-0.3s0-0.1-0.1-0.2v-0.1c-0.1-0.2-0.2-0.5-0.2-0.7v-0.1c0-0.1,0-0.1-0.1-0.2
		c-0.1-0.1-0.1-0.3-0.2-0.4c-0.1-0.2-0.1-0.3-0.2-0.5c0,0,0-0.1-0.1-0.1c0,0,0,0,0-0.1c-0.1-0.2-0.2-0.5-0.3-0.7
		c0-0.1-0.1-0.1-0.1-0.2c0-0.1-0.1-0.2-0.1-0.2c0-0.1-0.1-0.2-0.1-0.3c-0.1-0.2-0.2-0.5-0.4-0.7l0,0l0,0c-0.1-0.2-0.2-0.5-0.4-0.7
		c-0.1-0.2-0.2-0.3-0.3-0.5l-123.8-217L216,348c-0.1-0.2-0.3-0.4-0.4-0.6s-0.3-0.4-0.4-0.6c-0.1-0.1-0.1-0.2-0.2-0.3l0,0l-0.1-0.1
		c-0.1-0.2-0.2-0.3-0.3-0.5s-0.2-0.3-0.3-0.5c-0.1-0.1-0.2-0.3-0.3-0.4s-0.1-0.2-0.2-0.2l0,0l-0.1-0.1c-0.1-0.1-0.2-0.3-0.3-0.4
		s-0.2-0.3-0.3-0.4s-0.2-0.3-0.3-0.4s-0.2-0.2-0.3-0.4c0,0,0-0.1-0.1-0.1l0,0c-0.1-0.1-0.1-0.2-0.2-0.3c-0.1-0.1-0.2-0.3-0.4-0.4
		c-0.1-0.1-0.3-0.3-0.4-0.4c-0.1-0.1-0.3-0.3-0.4-0.4c0,0,0,0-0.1-0.1l-0.1-0.1c-0.2-0.2-0.4-0.4-0.6-0.6c-0.1-0.1-0.3-0.3-0.4-0.4
		c-0.3-0.3-0.6-0.6-0.9-1c-0.1-0.1-0.2-0.3-0.4-0.4c-0.2-0.2-0.4-0.4-0.6-0.6l-0.1-0.1c0,0,0,0-0.1-0.1s-0.2-0.2-0.3-0.3
		c-0.2-0.1-0.3-0.3-0.5-0.4c-0.1-0.1-0.3-0.2-0.4-0.3c-0.1-0.1-0.3-0.2-0.4-0.3c0,0,0,0-0.1,0l0,0c-0.1-0.1-0.2-0.2-0.3-0.2
		c-0.1-0.1-0.3-0.2-0.4-0.3c-0.1-0.1-0.3-0.2-0.4-0.3c-0.1-0.1-0.3-0.2-0.4-0.3c-0.1,0-0.1-0.1-0.2-0.1l0,0c-0.1,0-0.1-0.1-0.2-0.1
		c-0.2-0.1-0.3-0.2-0.5-0.3c-0.2-0.1-0.3-0.2-0.5-0.3c-0.2-0.1-0.3-0.2-0.5-0.4l0,0c0,0,0,0-0.1,0c-0.2-0.1-0.3-0.2-0.5-0.3
		c-0.2-0.1-0.4-0.3-0.6-0.4c-0.2-0.1-0.4-0.2-0.6-0.4c0,0,0,0-0.1,0l0,0c-0.2-0.1-0.5-0.3-0.7-0.4s-0.5-0.3-0.7-0.4
		c-0.1,0-0.1-0.1-0.2-0.1c0,0-0.1,0-0.1-0.1c-0.1-0.1-0.3-0.1-0.4-0.2c-0.2-0.1-0.5-0.2-0.7-0.4c-0.1-0.1-0.3-0.1-0.4-0.2
		c0,0-0.1,0-0.1-0.1c0,0-0.1,0-0.1-0.1c-0.2-0.1-0.5-0.2-0.7-0.3c-0.2-0.1-0.5-0.2-0.7-0.3h-0.1h-0.1c-0.2-0.1-0.3-0.1-0.5-0.2
		s-0.4-0.1-0.7-0.2c-0.1,0-0.2-0.1-0.4-0.1H194c-0.1,0-0.1,0-0.2-0.1c-0.2-0.1-0.4-0.1-0.7-0.2c-0.2,0-0.4-0.1-0.7-0.1l0,0l0,0
		c-0.2,0-0.4-0.1-0.6-0.1c-0.2,0-0.5-0.1-0.7-0.1h-0.2L19,319.4c-0.2,0-0.3,0-0.5,0c-0.1,0-0.1,0-0.2,0s-0.2,0-0.3,0
		c-0.1,0-0.1,0-0.2,0s-0.2,0-0.3,0c-0.1,0-0.2,0-0.3,0c-0.1,0-0.1,0-0.2,0s-0.1,0-0.2,0c-0.2,0-0.3,0.1-0.4,0.1s-0.1,0-0.2,0h-0.1
		c-0.3,0.1-0.5,0.2-0.8,0.3h-0.1l0,0c-0.3,0.1-0.6,0.3-0.8,0.4c-0.1,0-0.1,0.1-0.2,0.1c-0.2,0.2-0.5,0.4-0.7,0.6L7,327.3
		c0.2-0.2,0.5-0.4,0.7-0.6c0.1,0,0.1-0.1,0.2-0.1c0.3-0.2,0.5-0.3,0.8-0.4h0.1c0.2-0.1,0.5-0.2,0.8-0.3c0.1,0,0.2,0,0.3-0.1
		c0.2,0,0.3-0.1,0.5-0.1c0.1,0,0.2,0,0.4-0.1c0.1,0,0.2,0,0.4,0c0.1,0,0.3,0,0.5,0c0.1,0,0.2,0,0.3,0c0.2,0,0.5,0,0.7,0l172.2,9.7
		c0.5,0,1,0.1,1.5,0.2l0,0c0.5,0.1,1,0.2,1.5,0.3h0.1c0.5,0.1,1,0.3,1.5,0.5h0.1c0.5,0.2,1.1,0.4,1.6,0.7c0,0,0.1,0,0.1,0.1
		c0.5,0.2,1,0.5,1.6,0.8c0.1,0,0.1,0.1,0.2,0.1c0.5,0.3,1.1,0.6,1.6,0.9c0,0,0,0,0.1,0c0.6,0.3,1.1,0.7,1.7,1.1l0,0
		c0.6,0.4,1.1,0.8,1.7,1.2c0,0,0,0,0.1,0.1c0.5,0.4,1.1,0.9,1.6,1.3l0,0c0.5,0.5,1.1,0.9,1.6,1.4l0.1,0.1c0.4,0.3,0.7,0.7,1.1,1.1
		c0.3,0.3,0.6,0.6,0.9,1c0.3,0.3,0.7,0.7,1,1l0.1,0.1c0.5,0.5,1,1.1,1.4,1.7l0,0c0.5,0.6,0.9,1.2,1.3,1.8l0,0
		c0.4,0.6,0.8,1.2,1.2,1.8l0,0c0.4,0.6,0.8,1.2,1.1,1.9l123.8,217c0.2,0.4,0.4,0.8,0.6,1.2l0,0c0.2,0.4,0.4,0.7,0.5,1
		c0,0.1,0.1,0.1,0.1,0.2c0.2,0.3,0.3,0.7,0.5,1v0.1c0.1,0.3,0.3,0.6,0.4,0.9c0,0,0,0.1,0.1,0.1c0.1,0.3,0.2,0.6,0.3,1
		c0,0.1,0,0.1,0.1,0.2c0.1,0.3,0.2,0.6,0.2,0.8v0.1c0.1,0.3,0.1,0.6,0.2,0.9c0,0.1,0,0.1,0,0.2c0.1,0.3,0.1,0.6,0.1,0.9
		c0,0.3,0.1,0.7,0.1,1c0,0.1,0,0.2,0,0.2c0,0.3,0,0.5,0,0.8c0,0.1,0,0.1,0,0.2c0,0.3,0,0.6-0.1,0.9c0,0.1,0,0.2-0.1,0.3
		c0,0.2-0.1,0.4-0.1,0.6c-0.1,0.3-0.2,0.6-0.3,0.9l0,0c-0.1,0.4-0.3,0.7-0.5,1c0,0.1-0.1,0.2-0.2,0.2c-0.2,0.3-0.4,0.6-0.7,0.8
		l6.4-6.2c0.3-0.3,0.5-0.5,0.7-0.8c0.1-0.1,0.1-0.2,0.2-0.2c0.2-0.3,0.4-0.6,0.5-1l0,0l0,0c0.1-0.3,0.2-0.6,0.3-0.9c0,0,0,0,0-0.1
		c0-0.2,0.1-0.3,0.1-0.5c0-0.1,0-0.2,0.1-0.4l0,0c0-0.3,0.1-0.5,0.1-0.8c0,0,0,0,0-0.1s0-0.1,0-0.2
		C343.4,575.9,343.4,575.7,343.4,575.5z"/>
</g>
<linearGradient id="SVGID_18_" gradientUnits="userSpaceOnUse" x1="43.1533" y1="264.1089" x2="43.777" y2="264.1089" gradientTransform="matrix(0.9561 -0.2929 -0.2929 -0.9561 109.6037 697.8348)">
	<stop  offset="0" style="stop-color:#231815"/>
	<stop  offset="0.3378" style="stop-color:#251A17;stop-opacity:0.6622"/>
	<stop  offset="0.4771" style="stop-color:#2C211E;stop-opacity:0.5229"/>
	<stop  offset="0.5799" style="stop-color:#372D2A;stop-opacity:0.4201"/>
	<stop  offset="0.6647" style="stop-color:#483F3C;stop-opacity:0.3353"/>
	<stop  offset="0.7385" style="stop-color:#5D5553;stop-opacity:0.2615"/>
	<stop  offset="0.8045" style="stop-color:#78716F;stop-opacity:0.1955"/>
	<stop  offset="0.8648" style="stop-color:#979291;stop-opacity:0.1352"/>
	<stop  offset="0.9206" style="stop-color:#BCB9B8;stop-opacity:7.944739e-02"/>
	<stop  offset="0.9708" style="stop-color:#E4E3E2;stop-opacity:2.922642e-02"/>
	<stop  offset="1" style="stop-color:#FFFFFF;stop-opacity:0"/>
</linearGradient>
<path class="st100" d="M74.1,434.3L74.1,434.3C74,434.3,74,434.4,74.1,434.3c0,0,0-0.1,0-0.2C74.1,434.2,74.1,434.2,74.1,434.3z
	 M74.1,433.4v0.1C74.1,433.4,74.1,433.4,74.1,433.4C74.1,433.3,74.1,433.4,74.1,433.4z M74,432.6c0,0.1,0,0.2,0,0.2
	C74,432.7,74,432.6,74,432.6C74,432.5,74,432.5,74,432.6z M73.9,431.7c0,0.1,0,0.1,0,0.2C73.9,431.8,73.9,431.7,73.9,431.7
	C73.8,431.7,73.8,431.7,73.9,431.7z M73.6,430.9v0.1C73.6,430.9,73.6,430.9,73.6,430.9C73.6,430.8,73.6,430.8,73.6,430.9z"/>
<g>
	
		<image style="overflow:visible;opacity:0.2;enable-background:new    ;" width="315" height="62" xlink:href="DB1C3AB27946577E.png"  transform="matrix(0.9963 0 0 0.9963 264.0328 266.7647)">
	</image>
	<g>
		<g>
			<path class="st84" d="M274.4,277.6h5.9v24.3h-5.9V277.6z"/>
			<path class="st84" d="M284.4,289.9c0-8.1,5.4-12.8,11.6-12.8c3.2,0,5.7,1.5,7.4,3.2l-3.1,3.7c-1.2-1.1-2.5-1.9-4.2-1.9
				c-3.1,0-5.7,2.8-5.7,7.6c0,4.8,2.2,7.7,5.7,7.7c1.9,0,3.5-1,4.6-2.2l3.1,3.7c-2.1,2.4-4.8,3.6-8,3.6
				C289.6,302.4,284.4,298.1,284.4,289.9z"/>
			<path class="st84" d="M311.3,282.4h-6.6v-4.8h19v4.8h-6.6v19.5h-5.9v-19.5H311.3z"/>
			<path class="st84" d="M333.2,281.9h2.5v20h-2.5V281.9z"/>
			<path class="st84" d="M340.7,287.1h2l0.2,2.1h0.1c1.4-1.4,2.9-2.5,5-2.5c3.1,0,4.5,2,4.5,5.8v9.4h-2.4v-9.1c0-2.8-0.8-4-2.8-4
				c-1.5,0-2.6,0.8-4.1,2.3v10.7h-2.5V287.1z"/>
			<path class="st84" d="M357.1,287.1h2l0.2,2.1h0.1c1.4-1.4,2.9-2.5,5-2.5c3.1,0,4.5,2,4.5,5.8v9.4h-2.5v-9.1c0-2.8-0.8-4-2.8-4
				c-1.5,0-2.6,0.8-4.1,2.3v10.7h-2.4V287.1z"/>
			<path class="st84" d="M372.4,294.5c0-4.9,3.2-7.8,6.9-7.8c3.6,0,6.9,2.9,6.9,7.8s-3.2,7.7-6.9,7.7
				C375.6,302.3,372.4,299.4,372.4,294.5z M383.6,294.5c0-3.4-1.7-5.7-4.3-5.7c-2.6,0-4.3,2.3-4.3,5.7c0,3.4,1.7,5.7,4.3,5.7
				C381.8,300.2,383.6,297.9,383.6,294.5z"/>
			<path class="st84" d="M387.5,287.1h2.6l2.8,8.4c0.5,1.4,0.9,3,1.4,4.4h0.1c0.4-1.4,0.9-2.9,1.4-4.4l2.8-8.4h2.5l-5.3,14.8h-2.9
				L387.5,287.1z"/>
			<path class="st84" d="M402.1,298.1c0-3.2,2.8-4.8,9.1-5.5c0-1.9-0.6-3.7-3.1-3.7c-1.7,0-3.3,0.8-4.4,1.6l-1-1.7
				c1.4-0.9,3.5-1.9,5.8-1.9c3.6,0,5.1,2.4,5.1,6.1v9.1h-2l-0.2-1.8h-0.1c-1.4,1.2-3.1,2.1-4.9,2.1
				C403.9,302.3,402.1,300.8,402.1,298.1z M411.2,298.3v-4.1c-5,0.6-6.7,1.8-6.7,3.7c0,1.7,1.1,2.4,2.6,2.4
				C408.5,300.3,409.7,299.6,411.2,298.3z"/>
			<path class="st84" d="M418.1,297.3v-8.2h-2.2v-1.9l2.3-0.1l0.3-4.1h2.1v4.1h4v2h-4v8.3c0,1.8,0.6,2.9,2.3,2.9
				c0.5,0,1.2-0.2,1.7-0.4l0.5,1.9c-0.8,0.3-1.8,0.5-2.7,0.5C419.2,302.3,418.1,300.3,418.1,297.3z"/>
			<path class="st84" d="M427.2,282.5c0-1,0.7-1.6,1.7-1.6s1.7,0.6,1.7,1.6c0,0.9-0.7,1.6-1.7,1.6
				C428,284.1,427.2,283.4,427.2,282.5z M427.7,287.1h2.5v14.8h-2.5V287.1z"/>
			<path class="st84" d="M433.8,294.5c0-4.9,3.2-7.8,6.9-7.8c3.6,0,6.9,2.9,6.9,7.8s-3.2,7.7-6.9,7.7
				C437,302.3,433.8,299.4,433.8,294.5z M445,294.5c0-3.4-1.7-5.7-4.3-5.7c-2.6,0-4.3,2.3-4.3,5.7c0,3.4,1.7,5.7,4.3,5.7
				C443.2,300.2,445,297.9,445,294.5z"/>
			<path class="st84" d="M451.2,287.1h2l0.2,2.1h0.1c1.4-1.4,2.9-2.5,5-2.5c3.1,0,4.5,2,4.5,5.8v9.4h-2.5v-9.1c0-2.8-0.8-4-2.8-4
				c-1.5,0-2.6,0.8-4.1,2.3v10.7h-2.5L451.2,287.1L451.2,287.1z"/>
			<path class="st84" d="M471.1,299.3l1.5-1.7c1.4,1.5,3.5,2.5,5.5,2.5c2.6,0,4.2-1.3,4.2-3.3s-1.4-2.7-3.3-3.5l-2.9-1.3
				c-1.9-0.8-4.1-2.2-4.1-5.1c0-3.1,2.7-5.3,6.3-5.3c2.4,0,4.5,1,5.9,2.5l-1.3,1.6c-1.2-1.1-2.7-1.9-4.6-1.9c-2.3,0-3.7,1.1-3.7,2.9
				c0,1.9,1.7,2.7,3.3,3.3l2.9,1.2c2.3,1,4.1,2.4,4.1,5.3c0,3.2-2.6,5.7-6.8,5.7C475.3,302.3,472.9,301.1,471.1,299.3z"/>
			<path class="st84" d="M497.7,302.9l0.1-2.7c-1.2,1.2-2.8,2.1-4.5,2.1c-3.7,0-6.1-2.8-6.1-7.7c0-4.8,3-7.8,6.4-7.8
				c1.7,0,2.9,0.6,4.2,1.8h0.1l0.2-1.4h2v21h-2.5L497.7,302.9L497.7,302.9z M497.7,298.2v-7.8c-1.3-1.1-2.4-1.6-3.6-1.6
				c-2.4,0-4.3,2.3-4.3,5.7c0,3.6,1.5,5.7,4.1,5.7C495.3,300.2,496.5,299.5,497.7,298.2z"/>
			<path class="st84" d="M504.8,296.5v-9.4h2.5v9.1c0,2.8,0.8,3.9,2.8,3.9c1.5,0,2.6-0.7,4-2.5v-10.5h2.5v14.8h-2.1l-0.2-2.3h-0.1
				c-1.4,1.6-2.9,2.7-4.9,2.7C506.2,302.3,504.8,300.3,504.8,296.5z"/>
			<path class="st84" d="M520.3,298.1c0-3.2,2.8-4.8,9.1-5.5c0-1.9-0.6-3.7-3.1-3.7c-1.7,0-3.3,0.8-4.4,1.6l-1-1.7
				c1.4-0.9,3.5-1.9,5.8-1.9c3.6,0,5.1,2.4,5.1,6.1v9.1h-2l-0.2-1.8h-0.1c-1.4,1.2-3.1,2.1-4.9,2.1
				C522.2,302.3,520.3,300.8,520.3,298.1z M529.5,298.3v-4.1c-5,0.6-6.7,1.8-6.7,3.7c0,1.7,1.1,2.4,2.6,2.4
				C526.8,300.3,528,299.6,529.5,298.3z"/>
			<path class="st84" d="M536.4,287.1h2l0.2,2.7h0.1c1-1.9,2.5-3.1,4.2-3.1c0.7,0,1.1,0.1,1.6,0.3l-0.5,2.2
				c-0.5-0.2-0.8-0.2-1.4-0.2c-1.2,0-2.8,0.9-3.7,3.4v9.5h-2.5L536.4,287.1L536.4,287.1z"/>
			<path class="st84" d="M545.3,294.5c0-4.8,3.2-7.8,6.7-7.8c3.8,0,5.9,2.7,5.9,7c0,0.5-0.1,1.1-0.1,1.4h-10
				c0.2,3.2,2.1,5.2,4.9,5.2c1.4,0,2.6-0.4,3.7-1.2l0.9,1.6c-1.3,0.8-2.9,1.5-4.9,1.5C548.4,302.3,545.3,299.4,545.3,294.5z
				 M555.7,293.3c0-3-1.4-4.6-3.7-4.6c-2.1,0-4,1.7-4.3,4.6H555.7z"/>
		</g>
	</g>
</g>
</svg>
